<svg width="50" height="45" viewBox="0 0 50 45" fill="none" xmlns="http://www.w3.org/2000/svg">
<g clip-path="url(#clip0_1_2034)">
<path d="M37.3714 0C42.8841 0 47.1432 2.75356 48.9229 7.15255C50.7978 11.7978 49.9471 16.0401 46.6171 19.7731C45.985 20.4704 45.3182 21.1354 44.6191 21.7655C44.1881 22.1572 44.1713 22.4091 44.6191 22.84C45.828 23.9223 46.9283 25.1201 47.9043 26.4163C48.9886 28.0378 49.6493 29.905 49.8262 31.8476C50.003 33.7901 49.6903 35.746 48.9166 37.5366C48.143 39.3272 46.933 40.8954 45.3972 42.098C43.8614 43.3005 42.0488 44.0991 40.1249 44.4208C35.933 45.098 32.3959 43.8108 29.4913 40.7774C28.635 39.8875 27.7675 39.0144 26.872 38.1637C26.497 37.8111 26.3851 37.5649 26.8104 37.1507C27.9298 36.093 28.982 35.0072 30.0397 33.9159C30.3643 33.5801 30.5994 33.5689 30.9128 33.9159C31.937 34.9568 32.9836 35.9698 34.019 36.994C35.0892 38.1073 36.5578 38.7498 38.1017 38.7802C39.6456 38.8107 41.1384 38.2265 42.2517 37.1563C43.3649 36.0861 44.0074 34.6175 44.0379 33.0736C44.0683 31.5297 43.4842 30.0369 42.414 28.9236C41.0092 27.4237 39.5261 26.0693 38.1269 24.6254C36.6158 23.0975 36.6158 21.4744 38.1269 19.9466C39.4515 18.6145 40.7872 17.29 42.1341 15.9729C42.7122 15.4364 43.1753 14.7882 43.4955 14.0674C43.8156 13.3466 43.9861 12.5684 43.9965 11.7798C44.007 10.9912 43.8573 10.2087 43.5564 9.47969C43.2555 8.75069 42.8097 8.09036 42.2461 7.53872C41.7031 6.98985 41.0554 6.55565 40.3414 6.26189C39.6273 5.96812 38.8616 5.82079 38.0896 5.82862C37.3175 5.83645 36.5549 5.99928 35.847 6.30747C35.1391 6.61565 34.5003 7.0629 33.9686 7.62267C30.521 11.0516 27.0791 14.4917 23.6427 17.9429C20.9787 20.6126 20.9899 24.0713 23.7211 26.6793C24.3647 27.295 24.3927 27.6476 23.7211 28.2408C22.6857 29.1755 21.7287 30.1941 20.7604 31.2015C20.4526 31.5149 20.2735 31.5652 19.9042 31.2015C14.6265 26.4163 14.4194 18.7936 19.4508 13.7734C22.8536 10.4117 26.2489 7.02942 29.6368 3.62665C31.9874 1.27604 34.8193 0.03358 37.3714 0Z" fill="url(#paint0_linear_1_2034)"/>
<path d="M34.9421 22.3531C34.9542 23.844 34.6694 25.3225 34.1044 26.7023C33.5394 28.082 32.7055 29.3356 31.6513 30.3899C28.0079 34.0726 24.4148 37.7999 20.6482 41.3538C17.0328 44.7734 12.7401 45.4842 8.12847 43.6541C6.36704 42.9153 4.814 41.7553 3.60581 40.2759C2.39761 38.7964 1.57124 37.0429 1.1993 35.1694C0.827359 33.2959 0.921236 31.3597 1.47268 29.531C2.02413 27.7022 3.01626 26.0369 4.36191 24.6813C4.92158 24.0713 5.53162 23.4669 6.15844 22.9072C6.65655 22.4594 6.65655 22.1572 6.15844 21.6759C4.94397 20.5174 3.66233 19.3981 2.80044 17.9317C0.349095 13.7958 0.242759 9.5871 2.77805 5.51272C5.25178 1.53348 9.02394 -0.240664 13.6636 0.0503635C16.351 0.230127 18.8787 1.39137 20.7658 3.31323C21.8515 4.37659 22.9093 5.47354 24.0006 6.53691C24.3197 6.84473 24.4036 7.063 24.0454 7.40439C22.9261 8.46217 21.8739 9.53673 20.8161 10.6225C20.4691 10.9807 20.2565 11.0087 19.8703 10.6225C18.958 9.66545 17.973 8.77558 17.072 7.82415C16.5544 7.20946 15.9161 6.70757 15.1967 6.34955C14.4773 5.99154 13.692 5.78503 12.8896 5.7428C12.0871 5.70058 11.2845 5.82354 10.5315 6.10407C9.77847 6.3846 9.09106 6.81674 8.51182 7.37371C7.93259 7.93068 7.47386 8.60064 7.16404 9.34209C6.85422 10.0835 6.69992 10.8807 6.71067 11.6842C6.72143 12.4877 6.89703 13.2804 7.22658 14.0133C7.55614 14.7462 8.03264 15.4037 8.62658 15.9449C10.0761 17.3777 11.5145 18.8216 12.9192 20.2935C13.1875 20.5543 13.4007 20.8663 13.5463 21.2109C13.6919 21.5555 13.7669 21.9258 13.7669 22.2999C13.7669 22.6741 13.6919 23.0444 13.5463 23.389C13.4007 23.7336 13.1875 24.0456 12.9192 24.3064C11.5592 25.7391 10.1209 27.1047 8.74411 28.5039C6.96996 30.2668 6.35433 32.3544 7.11548 34.733C7.41418 35.7529 8.00074 36.6649 8.80482 37.3598C9.6089 38.0547 10.5964 38.5029 11.6488 38.6506C12.611 38.8302 13.6032 38.7615 14.5315 38.4511C15.4598 38.1407 16.2937 37.5987 16.9544 36.8765C19.9393 33.9252 22.8981 30.9664 25.8308 28.0002C26.5723 27.3233 27.2661 26.5958 27.9071 25.8231C29.838 23.271 29.5246 20.1816 27.1068 17.8534C26.508 17.2937 26.3848 16.9467 27.0676 16.3423C28.0806 15.4412 29.0097 14.4394 29.9443 13.4488C30.3193 13.0458 30.5655 13.0682 30.9573 13.4488C32.2119 14.5681 33.2155 15.9401 33.9023 17.4747C34.589 19.0093 34.9434 20.6718 34.9421 22.3531Z" fill="url(#paint1_linear_1_2034)"/>
<g clip-path="url(#clip1_1_2034)">
<path d="M37.3714 0C42.8841 0 47.1432 2.75356 48.9229 7.15255C50.7978 11.7978 49.9471 16.0401 46.6171 19.7731C45.985 20.4704 45.3182 21.1354 44.6191 21.7655C44.1881 22.1572 44.1713 22.4091 44.6191 22.84C45.828 23.9223 46.9283 25.1201 47.9043 26.4163C48.9886 28.0378 49.6493 29.905 49.8262 31.8476C50.003 33.7901 49.6903 35.746 48.9166 37.5366C48.143 39.3272 46.933 40.8954 45.3972 42.098C43.8614 43.3005 42.0488 44.0991 40.1249 44.4208C35.933 45.098 32.3959 43.8108 29.4913 40.7774C28.635 39.8875 27.7675 39.0144 26.872 38.1637C26.497 37.8111 26.3851 37.5649 26.8104 37.1507C27.9298 36.093 28.982 35.0072 30.0397 33.9159C30.3643 33.5801 30.5994 33.5689 30.9128 33.9159C31.937 34.9568 32.9836 35.9698 34.019 36.994C35.0892 38.1073 36.5578 38.7498 38.1017 38.7802C39.6456 38.8107 41.1384 38.2265 42.2517 37.1563C43.3649 36.0861 44.0074 34.6175 44.0379 33.0736C44.0683 31.5297 43.4842 30.0369 42.414 28.9236C41.0092 27.4237 39.5261 26.0693 38.1269 24.6254C36.6158 23.0975 36.6158 21.4744 38.1269 19.9466C39.4515 18.6145 40.7872 17.29 42.1341 15.9729C42.7122 15.4364 43.1753 14.7882 43.4955 14.0674C43.8156 13.3466 43.9861 12.5684 43.9965 11.7798C44.007 10.9912 43.8573 10.2087 43.5564 9.47969C43.2555 8.75069 42.8097 8.09036 42.2461 7.53872C41.7031 6.98985 41.0554 6.55565 40.3414 6.26189C39.6273 5.96812 38.8616 5.82079 38.0896 5.82862C37.3175 5.83645 36.5549 5.99928 35.847 6.30747C35.1391 6.61565 34.5003 7.0629 33.9686 7.62267C30.521 11.0516 27.0791 14.4917 23.6427 17.9429C20.9787 20.6126 20.9899 24.0713 23.7211 26.6793C24.3647 27.295 24.3927 27.6476 23.7211 28.2408C22.6857 29.1755 21.7287 30.1941 20.7604 31.2015C20.4526 31.5149 20.2735 31.5652 19.9042 31.2015C14.6265 26.4163 14.4194 18.7936 19.4508 13.7734C22.8536 10.4117 26.2489 7.02942 29.6368 3.62665C31.9874 1.27604 34.8193 0.03358 37.3714 0Z" fill="url(#paint2_linear_1_2034)"/>
<path d="M34.9421 22.3531C34.9542 23.844 34.6694 25.3225 34.1044 26.7023C33.5394 28.082 32.7055 29.3356 31.6513 30.3899C28.0079 34.0726 24.4148 37.7999 20.6482 41.3538C17.0328 44.7734 12.7401 45.4842 8.12847 43.6541C6.36704 42.9153 4.814 41.7553 3.60581 40.2759C2.39761 38.7964 1.57124 37.0429 1.1993 35.1694C0.827359 33.2959 0.921236 31.3597 1.47268 29.531C2.02413 27.7022 3.01626 26.0369 4.36191 24.6813C4.92158 24.0713 5.53162 23.4669 6.15844 22.9072C6.65655 22.4594 6.65655 22.1572 6.15844 21.6759C4.94397 20.5174 3.66233 19.3981 2.80044 17.9317C0.349095 13.7958 0.242759 9.5871 2.77805 5.51272C5.25178 1.53348 9.02394 -0.240664 13.6636 0.0503635C16.351 0.230127 18.8787 1.39137 20.7658 3.31323C21.8515 4.37659 22.9093 5.47354 24.0006 6.53691C24.3197 6.84473 24.4036 7.063 24.0454 7.40439C22.9261 8.46217 21.8739 9.53673 20.8161 10.6225C20.4691 10.9807 20.2565 11.0087 19.8703 10.6225C18.958 9.66545 17.973 8.77558 17.072 7.82415C16.5544 7.20946 15.9161 6.70757 15.1967 6.34955C14.4773 5.99154 13.692 5.78503 12.8896 5.7428C12.0871 5.70058 11.2845 5.82354 10.5315 6.10407C9.77847 6.3846 9.09106 6.81674 8.51182 7.37371C7.93259 7.93068 7.47386 8.60064 7.16404 9.34209C6.85422 10.0835 6.69992 10.8807 6.71067 11.6842C6.72143 12.4877 6.89703 13.2804 7.22658 14.0133C7.55614 14.7462 8.03264 15.4037 8.62658 15.9449C10.0761 17.3777 11.5145 18.8216 12.9192 20.2935C13.1875 20.5543 13.4007 20.8663 13.5463 21.2109C13.6919 21.5555 13.7669 21.9258 13.7669 22.2999C13.7669 22.6741 13.6919 23.0444 13.5463 23.389C13.4007 23.7336 13.1875 24.0456 12.9192 24.3064C11.5592 25.7391 10.1209 27.1047 8.74411 28.5039C6.96996 30.2668 6.35433 32.3544 7.11548 34.733C7.41418 35.7529 8.00074 36.6649 8.80482 37.3598C9.6089 38.0547 10.5964 38.5029 11.6488 38.6506C12.611 38.8302 13.6032 38.7615 14.5315 38.4511C15.4598 38.1407 16.2937 37.5987 16.9544 36.8765C19.9393 33.9252 22.8981 30.9664 25.8308 28.0002C26.5723 27.3233 27.2661 26.5958 27.9071 25.8231C29.838 23.271 29.5246 20.1816 27.1068 17.8534C26.508 17.2937 26.3848 16.9467 27.0676 16.3423C28.0806 15.4412 29.0097 14.4394 29.9443 13.4488C30.3193 13.0458 30.5655 13.0682 30.9573 13.4488C32.2119 14.5681 33.2155 15.9401 33.9023 17.4747C34.589 19.0093 34.9434 20.6718 34.9421 22.3531Z" fill="url(#paint3_linear_1_2034)"/>
</g>
</g>
<defs>
<linearGradient id="paint0_linear_1_2034" x1="15.8076" y1="22.2985" x2="49.9005" y2="22.2985" gradientUnits="userSpaceOnUse">
<stop stop-color="#3D05DD"/>
<stop offset="1" stop-color="#E198F0"/>
</linearGradient>
<linearGradient id="paint1_linear_1_2034" x1="0.918945" y1="22.3273" x2="34.9425" y2="22.3273" gradientUnits="userSpaceOnUse">
<stop stop-color="#3D05DD"/>
<stop offset="1" stop-color="#E198F0"/>
</linearGradient>
<linearGradient id="paint2_linear_1_2034" x1="15.8076" y1="22.2985" x2="49.9005" y2="22.2985" gradientUnits="userSpaceOnUse">
<stop stop-color="#3D05DD"/>
<stop offset="1" stop-color="#E198F0"/>
</linearGradient>
<linearGradient id="paint3_linear_1_2034" x1="0.918945" y1="22.3273" x2="34.9425" y2="22.3273" gradientUnits="userSpaceOnUse">
<stop stop-color="#3D05DD"/>
<stop offset="1" stop-color="#E198F0"/>
</linearGradient>
<clipPath id="clip0_1_2034">
<rect width="48.9877" height="44.6391" fill="white" transform="translate(0.90918)"/>
</clipPath>
<clipPath id="clip1_1_2034">
<rect width="48.9877" height="44.6391" fill="white" transform="translate(0.90918)"/>
</clipPath>
</defs>
</svg>
