<svg width="218" height="45" viewBox="0 0 218 45" fill="none" xmlns="http://www.w3.org/2000/svg">
<g clip-path="url(#clip0_1_2033)">
<path d="M37.3714 0C42.8841 0 47.1432 2.75356 48.9229 7.15255C50.7978 11.7978 49.9471 16.0401 46.6171 19.7731C45.985 20.4704 45.3182 21.1354 44.6191 21.7655C44.1881 22.1572 44.1713 22.4091 44.6191 22.84C45.828 23.9223 46.9283 25.1201 47.9043 26.4163C48.9886 28.0378 49.6493 29.905 49.8262 31.8476C50.003 33.7901 49.6903 35.746 48.9166 37.5366C48.143 39.3272 46.933 40.8954 45.3972 42.098C43.8614 43.3005 42.0488 44.0991 40.1249 44.4208C35.933 45.098 32.3959 43.8108 29.4913 40.7774C28.635 39.8875 27.7675 39.0144 26.872 38.1637C26.497 37.8111 26.3851 37.5649 26.8104 37.1507C27.9298 36.093 28.982 35.0072 30.0397 33.9159C30.3643 33.5801 30.5994 33.5689 30.9128 33.9159C31.937 34.9568 32.9836 35.9698 34.019 36.994C35.0892 38.1073 36.5578 38.7498 38.1017 38.7802C39.6456 38.8107 41.1384 38.2265 42.2517 37.1563C43.3649 36.0861 44.0074 34.6175 44.0379 33.0736C44.0683 31.5297 43.4842 30.0369 42.414 28.9236C41.0092 27.4237 39.5261 26.0693 38.1269 24.6254C36.6158 23.0975 36.6158 21.4744 38.1269 19.9466C39.4515 18.6145 40.7872 17.29 42.1341 15.9729C42.7122 15.4364 43.1753 14.7882 43.4955 14.0674C43.8156 13.3466 43.9861 12.5684 43.9965 11.7798C44.007 10.9912 43.8573 10.2087 43.5564 9.47969C43.2555 8.75069 42.8097 8.09036 42.2461 7.53872C41.7031 6.98985 41.0554 6.55565 40.3414 6.26189C39.6273 5.96812 38.8616 5.82079 38.0896 5.82862C37.3175 5.83645 36.5549 5.99928 35.847 6.30747C35.1391 6.61565 34.5003 7.0629 33.9686 7.62267C30.521 11.0516 27.0791 14.4917 23.6427 17.9429C20.9787 20.6126 20.9899 24.0713 23.7211 26.6793C24.3647 27.295 24.3927 27.6476 23.7211 28.2408C22.6857 29.1755 21.7287 30.1941 20.7604 31.2015C20.4526 31.5149 20.2735 31.5652 19.9042 31.2015C14.6265 26.4163 14.4194 18.7936 19.4508 13.7734C22.8536 10.4117 26.2489 7.02942 29.6368 3.62665C31.9874 1.27604 34.8193 0.03358 37.3714 0Z" fill="url(#paint0_linear_1_2033)"/>
<path d="M34.9421 22.3531C34.9542 23.844 34.6694 25.3225 34.1044 26.7023C33.5394 28.082 32.7055 29.3356 31.6513 30.3899C28.0079 34.0726 24.4148 37.7999 20.6482 41.3538C17.0328 44.7734 12.7401 45.4842 8.12847 43.6541C6.36704 42.9153 4.814 41.7553 3.60581 40.2759C2.39761 38.7964 1.57124 37.0429 1.1993 35.1694C0.827359 33.2959 0.921236 31.3597 1.47268 29.531C2.02413 27.7022 3.01626 26.0369 4.36191 24.6813C4.92158 24.0713 5.53162 23.4669 6.15844 22.9072C6.65655 22.4594 6.65655 22.1572 6.15844 21.6759C4.94397 20.5174 3.66233 19.3981 2.80044 17.9317C0.349095 13.7958 0.242759 9.5871 2.77805 5.51272C5.25178 1.53348 9.02394 -0.240664 13.6636 0.0503635C16.351 0.230127 18.8787 1.39137 20.7658 3.31323C21.8515 4.37659 22.9093 5.47354 24.0006 6.53691C24.3197 6.84473 24.4036 7.063 24.0454 7.40439C22.9261 8.46217 21.8739 9.53673 20.8161 10.6225C20.4691 10.9807 20.2565 11.0087 19.8703 10.6225C18.958 9.66545 17.973 8.77558 17.072 7.82415C16.5544 7.20946 15.9161 6.70757 15.1967 6.34955C14.4773 5.99154 13.692 5.78503 12.8896 5.7428C12.0871 5.70058 11.2845 5.82354 10.5315 6.10407C9.77847 6.3846 9.09106 6.81674 8.51182 7.37371C7.93259 7.93068 7.47386 8.60064 7.16404 9.34209C6.85422 10.0835 6.69992 10.8807 6.71067 11.6842C6.72143 12.4877 6.89703 13.2804 7.22658 14.0133C7.55614 14.7462 8.03264 15.4037 8.62658 15.9449C10.0761 17.3777 11.5145 18.8216 12.9192 20.2935C13.1875 20.5543 13.4007 20.8663 13.5463 21.2109C13.6919 21.5555 13.7669 21.9258 13.7669 22.2999C13.7669 22.6741 13.6919 23.0444 13.5463 23.389C13.4007 23.7336 13.1875 24.0456 12.9192 24.3064C11.5592 25.7391 10.1209 27.1047 8.74411 28.5039C6.96996 30.2668 6.35433 32.3544 7.11548 34.733C7.41418 35.7529 8.00074 36.6649 8.80482 37.3598C9.6089 38.0547 10.5964 38.5029 11.6488 38.6506C12.611 38.8302 13.6032 38.7615 14.5315 38.4511C15.4598 38.1407 16.2937 37.5987 16.9544 36.8765C19.9393 33.9252 22.8981 30.9664 25.8308 28.0002C26.5723 27.3233 27.2661 26.5958 27.9071 25.8231C29.838 23.271 29.5246 20.1816 27.1068 17.8534C26.508 17.2937 26.3848 16.9467 27.0676 16.3423C28.0806 15.4412 29.0097 14.4394 29.9443 13.4488C30.3193 13.0458 30.5655 13.0682 30.9573 13.4488C32.2119 14.5681 33.2155 15.9401 33.9023 17.4747C34.589 19.0093 34.9434 20.6718 34.9421 22.3531Z" fill="url(#paint1_linear_1_2033)"/>
<g clip-path="url(#clip1_1_2033)">
<path d="M37.3714 0C42.8841 0 47.1432 2.75356 48.9229 7.15255C50.7978 11.7978 49.9471 16.0401 46.6171 19.7731C45.985 20.4704 45.3182 21.1354 44.6191 21.7655C44.1881 22.1572 44.1713 22.4091 44.6191 22.84C45.828 23.9223 46.9283 25.1201 47.9043 26.4163C48.9886 28.0378 49.6493 29.905 49.8262 31.8476C50.003 33.7901 49.6903 35.746 48.9166 37.5366C48.143 39.3272 46.933 40.8954 45.3972 42.098C43.8614 43.3005 42.0488 44.0991 40.1249 44.4208C35.933 45.098 32.3959 43.8108 29.4913 40.7774C28.635 39.8875 27.7675 39.0144 26.872 38.1637C26.497 37.8111 26.3851 37.5649 26.8104 37.1507C27.9298 36.093 28.982 35.0072 30.0397 33.9159C30.3643 33.5801 30.5994 33.5689 30.9128 33.9159C31.937 34.9568 32.9836 35.9698 34.019 36.994C35.0892 38.1073 36.5578 38.7498 38.1017 38.7802C39.6456 38.8107 41.1384 38.2265 42.2517 37.1563C43.3649 36.0861 44.0074 34.6175 44.0379 33.0736C44.0683 31.5297 43.4842 30.0369 42.414 28.9236C41.0092 27.4237 39.5261 26.0693 38.1269 24.6254C36.6158 23.0975 36.6158 21.4744 38.1269 19.9466C39.4515 18.6145 40.7872 17.29 42.1341 15.9729C42.7122 15.4364 43.1753 14.7882 43.4955 14.0674C43.8156 13.3466 43.9861 12.5684 43.9965 11.7798C44.007 10.9912 43.8573 10.2087 43.5564 9.47969C43.2555 8.75069 42.8097 8.09036 42.2461 7.53872C41.7031 6.98985 41.0554 6.55565 40.3414 6.26189C39.6273 5.96812 38.8616 5.82079 38.0896 5.82862C37.3175 5.83645 36.5549 5.99928 35.847 6.30747C35.1391 6.61565 34.5003 7.0629 33.9686 7.62267C30.521 11.0516 27.0791 14.4917 23.6427 17.9429C20.9787 20.6126 20.9899 24.0713 23.7211 26.6793C24.3647 27.295 24.3927 27.6476 23.7211 28.2408C22.6857 29.1755 21.7287 30.1941 20.7604 31.2015C20.4526 31.5149 20.2735 31.5652 19.9042 31.2015C14.6265 26.4163 14.4194 18.7936 19.4508 13.7734C22.8536 10.4117 26.2489 7.02942 29.6368 3.62665C31.9874 1.27604 34.8193 0.03358 37.3714 0Z" fill="url(#paint2_linear_1_2033)"/>
<path d="M34.9421 22.3531C34.9542 23.844 34.6694 25.3225 34.1044 26.7023C33.5394 28.082 32.7055 29.3356 31.6513 30.3899C28.0079 34.0726 24.4148 37.7999 20.6482 41.3538C17.0328 44.7734 12.7401 45.4842 8.12847 43.6541C6.36704 42.9153 4.814 41.7553 3.60581 40.2759C2.39761 38.7964 1.57124 37.0429 1.1993 35.1694C0.827359 33.2959 0.921236 31.3597 1.47268 29.531C2.02413 27.7022 3.01626 26.0369 4.36191 24.6813C4.92158 24.0713 5.53162 23.4669 6.15844 22.9072C6.65655 22.4594 6.65655 22.1572 6.15844 21.6759C4.94397 20.5174 3.66233 19.3981 2.80044 17.9317C0.349095 13.7958 0.242759 9.5871 2.77805 5.51272C5.25178 1.53348 9.02394 -0.240664 13.6636 0.0503635C16.351 0.230127 18.8787 1.39137 20.7658 3.31323C21.8515 4.37659 22.9093 5.47354 24.0006 6.53691C24.3197 6.84473 24.4036 7.063 24.0454 7.40439C22.9261 8.46217 21.8739 9.53673 20.8161 10.6225C20.4691 10.9807 20.2565 11.0087 19.8703 10.6225C18.958 9.66545 17.973 8.77558 17.072 7.82415C16.5544 7.20946 15.9161 6.70757 15.1967 6.34955C14.4773 5.99154 13.692 5.78503 12.8896 5.7428C12.0871 5.70058 11.2845 5.82354 10.5315 6.10407C9.77847 6.3846 9.09106 6.81674 8.51182 7.37371C7.93259 7.93068 7.47386 8.60064 7.16404 9.34209C6.85422 10.0835 6.69992 10.8807 6.71067 11.6842C6.72143 12.4877 6.89703 13.2804 7.22658 14.0133C7.55614 14.7462 8.03264 15.4037 8.62658 15.9449C10.0761 17.3777 11.5145 18.8216 12.9192 20.2935C13.1875 20.5543 13.4007 20.8663 13.5463 21.2109C13.6919 21.5555 13.7669 21.9258 13.7669 22.2999C13.7669 22.6741 13.6919 23.0444 13.5463 23.389C13.4007 23.7336 13.1875 24.0456 12.9192 24.3064C11.5592 25.7391 10.1209 27.1047 8.74411 28.5039C6.96996 30.2668 6.35433 32.3544 7.11548 34.733C7.41418 35.7529 8.00074 36.6649 8.80482 37.3598C9.6089 38.0547 10.5964 38.5029 11.6488 38.6506C12.611 38.8302 13.6032 38.7615 14.5315 38.4511C15.4598 38.1407 16.2937 37.5987 16.9544 36.8765C19.9393 33.9252 22.8981 30.9664 25.8308 28.0002C26.5723 27.3233 27.2661 26.5958 27.9071 25.8231C29.838 23.271 29.5246 20.1816 27.1068 17.8534C26.508 17.2937 26.3848 16.9467 27.0676 16.3423C28.0806 15.4412 29.0097 14.4394 29.9443 13.4488C30.3193 13.0458 30.5655 13.0682 30.9573 13.4488C32.2119 14.5681 33.2155 15.9401 33.9023 17.4747C34.589 19.0093 34.9434 20.6718 34.9421 22.3531Z" fill="url(#paint3_linear_1_2033)"/>
</g>
</g>
<path d="M65.9889 33.6349C61.3338 33.6349 58.3305 30.4814 58.3305 25.3758C58.3305 20.3003 61.3188 17.0717 65.9589 17.0717C69.0823 17.0717 71.7402 18.6785 72.506 20.9159C72.6262 21.2313 72.7012 21.5466 72.7012 21.8169C72.7012 22.7479 71.9955 23.3186 71.0945 23.3186C70.3437 23.3186 69.8932 23.0032 69.4577 22.2524C68.6618 20.7958 67.6107 20.105 66.064 20.105C63.6613 20.105 62.1297 22.1022 62.1297 25.3608C62.1297 28.6644 63.6764 30.6166 66.049 30.6166C67.7008 30.6166 68.7219 29.8507 69.4427 28.5743C69.9532 27.7334 70.3587 27.4181 71.1696 27.4181C72.0555 27.4181 72.7463 28.0187 72.7463 28.9497C72.7463 29.235 72.6712 29.5504 72.521 29.9108C71.6351 32.0882 68.9922 33.6349 65.9889 33.6349ZM80.8402 33.6048C77.3864 33.6048 75.194 31.3674 75.194 27.6883V19.0539C75.194 17.8075 75.9598 17.0867 77.056 17.0867C78.1522 17.0867 78.9331 17.8075 78.9331 19.0689V26.9375C78.9331 29.22 80.0443 30.4514 82.1466 30.4514C84.309 30.4514 85.6454 28.9197 85.6454 26.6072V19.0539C85.6454 17.8075 86.4263 17.0867 87.5225 17.0867C88.6037 17.0867 89.3845 17.8075 89.3845 19.0689V31.7278C89.3845 32.9291 88.6637 33.6198 87.5976 33.6198C86.5164 33.6198 85.7806 32.9291 85.7806 31.7278V30.5565H85.7055C84.8646 32.4936 83.2578 33.6048 80.8402 33.6048ZM98.3944 33.5748C94.385 33.5748 91.7872 30.4063 91.7872 25.3458C91.7872 20.3153 94.385 17.1318 98.3944 17.1318C100.677 17.1318 102.479 18.3181 103.32 20.075H103.41V13.3176C103.41 12.0562 104.176 11.3504 105.272 11.3504C106.368 11.3504 107.149 12.0562 107.149 13.3176V31.7428C107.149 32.9441 106.383 33.6198 105.302 33.6198C104.221 33.6198 103.41 32.9591 103.41 31.7428V30.4964H103.335C102.569 32.3284 100.857 33.5748 98.3944 33.5748ZM99.5206 30.5114C101.878 30.5114 103.425 28.5143 103.425 25.3608C103.425 22.2374 101.878 20.2102 99.5206 20.2102C97.118 20.2102 95.6163 22.2073 95.6163 25.3608C95.6163 28.5293 97.103 30.5114 99.5206 30.5114ZM116.234 33.5748C112.225 33.5748 109.627 30.4063 109.627 25.3458C109.627 20.3153 112.225 17.1318 116.234 17.1318C118.516 17.1318 120.318 18.3181 121.159 20.075H121.249V13.3176C121.249 12.0562 122.015 11.3504 123.111 11.3504C124.208 11.3504 124.989 12.0562 124.989 13.3176V31.7428C124.989 32.9441 124.223 33.6198 123.142 33.6198C122.06 33.6198 121.249 32.9591 121.249 31.7428V30.4964H121.174C120.409 32.3284 118.697 33.5748 116.234 33.5748ZM117.36 30.5114C119.718 30.5114 121.264 28.5143 121.264 25.3608C121.264 22.2374 119.718 20.2102 117.36 20.2102C114.958 20.2102 113.456 22.2073 113.456 25.3608C113.456 28.5293 114.943 30.5114 117.36 30.5114ZM134.073 33.5748C130.064 33.5748 127.466 30.4063 127.466 25.3458C127.466 20.3153 130.064 17.1318 134.073 17.1318C136.356 17.1318 138.158 18.3181 138.999 20.075H139.089V13.3176C139.089 12.0562 139.855 11.3504 140.951 11.3504C142.047 11.3504 142.828 12.0562 142.828 13.3176V31.7428C142.828 32.9441 142.062 33.6198 140.981 33.6198C139.9 33.6198 139.089 32.9591 139.089 31.7428V30.4964H139.014C138.248 32.3284 136.536 33.5748 134.073 33.5748ZM135.2 30.5114C137.557 30.5114 139.104 28.5143 139.104 25.3608C139.104 22.2374 137.557 20.2102 135.2 20.2102C132.797 20.2102 131.295 22.2073 131.295 25.3608C131.295 28.5293 132.782 30.5114 135.2 30.5114ZM147.949 33.6198C146.852 33.6198 146.072 32.9141 146.072 31.6527V13.3176C146.072 12.0562 146.852 11.3504 147.949 11.3504C149.045 11.3504 149.811 12.0562 149.811 13.3176V31.6527C149.811 32.9141 149.045 33.6198 147.949 33.6198ZM160.067 33.6349C155.202 33.6349 152.334 30.5865 152.334 25.4209C152.334 20.3453 155.262 17.0717 159.857 17.0717C164.212 17.0717 167.185 20.1651 167.185 24.4898C167.185 25.6011 166.554 26.2618 165.443 26.2618H156.058V26.3819C156.058 29.0398 157.604 30.7517 160.037 30.7517C161.719 30.7517 162.815 30.1661 164.016 28.6344C164.407 28.1989 164.752 28.0337 165.278 28.0337C166.119 28.0337 166.779 28.5743 166.779 29.4753C166.779 29.7606 166.689 30.091 166.524 30.4213C165.473 32.4486 163.1 33.6349 160.067 33.6349ZM156.088 23.7991H163.521C163.446 21.4866 161.974 19.9699 159.872 19.9699C157.769 19.9699 156.238 21.5166 156.088 23.7991ZM177.621 33.6198C176.495 33.6198 175.759 32.8991 175.759 31.6527V18.9938C175.759 17.7775 176.495 17.0867 177.546 17.0867C178.597 17.0867 179.348 17.7775 179.348 18.9938V20.1651H179.423C180.114 18.3181 181.796 17.1017 183.958 17.1017C186.211 17.1017 187.817 18.258 188.403 20.3003H188.493C189.259 18.3331 191.151 17.1017 193.449 17.1017C196.587 17.1017 198.644 19.2191 198.644 22.4026V31.6527C198.644 32.8991 197.893 33.6198 196.782 33.6198C195.656 33.6198 194.905 32.8991 194.905 31.6527V23.3186C194.905 21.3664 193.884 20.2552 192.052 20.2552C190.25 20.2552 189.019 21.5767 189.019 23.4837V31.6527C189.019 32.8991 188.313 33.6198 187.202 33.6198C186.075 33.6198 185.385 32.8991 185.385 31.6527V23.1233C185.385 21.3514 184.304 20.2552 182.562 20.2552C180.76 20.2552 179.498 21.6517 179.498 23.5738V31.6527C179.498 32.8991 178.732 33.6198 177.621 33.6198ZM208.72 33.6349C203.855 33.6349 200.987 30.5865 200.987 25.4209C200.987 20.3453 203.915 17.0717 208.51 17.0717C212.865 17.0717 215.838 20.1651 215.838 24.4898C215.838 25.6011 215.207 26.2618 214.096 26.2618H204.711V26.3819C204.711 29.0398 206.258 30.7517 208.69 30.7517C210.372 30.7517 211.468 30.1661 212.67 28.6344C213.06 28.1989 213.405 28.0337 213.931 28.0337C214.772 28.0337 215.433 28.5743 215.433 29.4753C215.433 29.7606 215.343 30.091 215.177 30.4213C214.126 32.4486 211.754 33.6349 208.72 33.6349ZM204.741 23.7991H212.174C212.099 21.4866 210.627 19.9699 208.525 19.9699C206.423 19.9699 204.891 21.5166 204.741 23.7991Z" fill="url(#paint4_linear_1_2033)"/>
<defs>
<linearGradient id="paint0_linear_1_2033" x1="15.8076" y1="22.2985" x2="49.9005" y2="22.2985" gradientUnits="userSpaceOnUse">
<stop stop-color="#3D05DD"/>
<stop offset="1" stop-color="#E198F0"/>
</linearGradient>
<linearGradient id="paint1_linear_1_2033" x1="0.918945" y1="22.3273" x2="34.9425" y2="22.3273" gradientUnits="userSpaceOnUse">
<stop stop-color="#3D05DD"/>
<stop offset="1" stop-color="#E198F0"/>
</linearGradient>
<linearGradient id="paint2_linear_1_2033" x1="15.8076" y1="22.2985" x2="49.9005" y2="22.2985" gradientUnits="userSpaceOnUse">
<stop stop-color="#3D05DD"/>
<stop offset="1" stop-color="#E198F0"/>
</linearGradient>
<linearGradient id="paint3_linear_1_2033" x1="0.918945" y1="22.3273" x2="34.9425" y2="22.3273" gradientUnits="userSpaceOnUse">
<stop stop-color="#3D05DD"/>
<stop offset="1" stop-color="#E198F0"/>
</linearGradient>
<linearGradient id="paint4_linear_1_2033" x1="57.0918" y1="22.3195" x2="217.092" y2="22.3195" gradientUnits="userSpaceOnUse">
<stop stop-color="#3D05DD"/>
<stop offset="1" stop-color="#E198F0"/>
</linearGradient>
<clipPath id="clip0_1_2033">
<rect width="48.9877" height="44.6391" fill="white" transform="translate(0.90918)"/>
</clipPath>
<clipPath id="clip1_1_2033">
<rect width="48.9877" height="44.6391" fill="white" transform="translate(0.90918)"/>
</clipPath>
</defs>
</svg>
