<svg width="34" height="34" viewBox="0 0 34 34" fill="none" xmlns="http://www.w3.org/2000/svg">
<path d="M16.9997 2.83331C9.19384 2.83331 2.83301 9.19415 2.83301 17C2.83301 24.8058 9.19384 31.1666 16.9997 31.1666C24.8055 31.1666 31.1663 24.8058 31.1663 17C31.1663 9.19415 24.8055 2.83331 16.9997 2.83331ZM22.6663 18.0625H18.0622V22.6666C18.0622 23.2475 17.5805 23.7291 16.9997 23.7291C16.4188 23.7291 15.9372 23.2475 15.9372 22.6666V18.0625H11.333C10.7522 18.0625 10.2705 17.5808 10.2705 17C10.2705 16.4191 10.7522 15.9375 11.333 15.9375H15.9372V11.3333C15.9372 10.7525 16.4188 10.2708 16.9997 10.2708C17.5805 10.2708 18.0622 10.7525 18.0622 11.3333V15.9375H22.6663C23.2472 15.9375 23.7288 16.4191 23.7288 17C23.7288 17.5808 23.2472 18.0625 22.6663 18.0625Z" fill="white"/>
</svg>
