<svg width="18" height="18" viewBox="0 0 18 18" fill="none" xmlns="http://www.w3.org/2000/svg">
<path d="M9 1.49731C4.8675 1.49731 1.5 4.86481 1.5 8.99731C1.5 13.1298 4.8675 16.4973 9 16.4973C13.1325 16.4973 16.5 13.1298 16.5 8.99731C16.5 4.86481 13.1325 1.49731 9 1.49731ZM12.585 7.27231L8.3325 11.5248C8.2275 11.6298 8.085 11.6898 7.935 11.6898C7.785 11.6898 7.6425 11.6298 7.5375 11.5248L5.415 9.40231C5.1975 9.18481 5.1975 8.82481 5.415 8.60731C5.6325 8.38981 5.9925 8.38981 6.21 8.60731L7.935 10.3323L11.79 6.47731C12.0075 6.25981 12.3675 6.25981 12.585 6.47731C12.8025 6.69481 12.8025 7.04731 12.585 7.27231Z" fill="url(#paint0_linear_20_150)"/>
<defs>
<linearGradient id="paint0_linear_20_150" x1="1.5" y1="8.99732" x2="16.5" y2="8.99732" gradientUnits="userSpaceOnUse">
<stop stop-color="#3D05DD"/>
<stop offset="1" stop-color="#E198F0"/>
</linearGradient>
</defs>
</svg>
