<svg width="41" height="37" viewBox="0 0 41 37" fill="none" xmlns="http://www.w3.org/2000/svg">
<g clip-path="url(#clip0_1_5854)">
<path d="M29.8143 0C34.3023 0 37.7698 2.24174 39.2187 5.82305C40.7451 9.60484 40.0525 13.0586 37.3414 16.0977C36.8269 16.6654 36.284 17.2068 35.7148 17.7197C35.364 18.0387 35.3503 18.2437 35.7148 18.5946C36.699 19.4757 37.5948 20.4508 38.3894 21.5061C39.2722 22.8262 39.8101 24.3463 39.954 25.9278C40.098 27.5093 39.8434 29.1016 39.2136 30.5594C38.5837 32.0171 37.5986 33.2938 36.3483 34.2729C35.098 35.2519 33.6223 35.9021 32.0561 36.164C28.6433 36.7153 25.7637 35.6673 23.3989 33.1978C22.7018 32.4733 21.9956 31.7625 21.2666 31.0699C20.9613 30.7829 20.8702 30.5824 21.2164 30.2452C22.1277 29.3841 22.9843 28.5001 23.8455 27.6116C24.1097 27.3383 24.3011 27.3291 24.5563 27.6116C25.3901 28.4591 26.2421 29.2838 27.085 30.1176C27.9563 31.024 29.1519 31.5471 30.4089 31.5718C31.6658 31.5966 32.8812 31.1211 33.7875 30.2498C34.6938 29.3785 35.2169 28.1829 35.2417 26.9259C35.2664 25.669 34.7909 24.4537 33.9196 23.5474C32.776 22.3262 31.5685 21.2236 30.4294 20.0481C29.1992 18.8042 29.1992 17.4828 30.4294 16.2389C31.5078 15.1545 32.5952 14.0762 33.6918 13.0039C34.1624 12.5671 34.5395 12.0394 34.8001 11.4526C35.0607 10.8658 35.1995 10.2322 35.208 9.59019C35.2165 8.94818 35.0946 8.31112 34.8496 7.71763C34.6047 7.12413 34.2418 6.58654 33.7829 6.13744C33.3409 5.69059 32.8135 5.3371 32.2322 5.09794C31.651 4.85878 31.0275 4.73883 30.399 4.7452C29.7705 4.75158 29.1496 4.88415 28.5733 5.13505C27.997 5.38595 27.477 5.75006 27.044 6.20578C24.2373 8.99732 21.4351 11.798 18.6375 14.6077C16.4687 16.7811 16.4778 19.597 18.7013 21.7202C19.2253 22.2214 19.2481 22.5085 18.7013 22.9915C17.8584 23.7524 17.0792 24.5816 16.291 25.4018C16.0404 25.657 15.8946 25.698 15.5939 25.4018C11.2972 21.5061 11.1286 15.3003 15.2248 11.2132C17.9951 8.47638 20.7593 5.72281 23.5174 2.95253C25.4311 1.03885 27.7366 0.0273383 29.8143 0Z" fill="#CCCDCE"/>
<path d="M27.8367 18.1982C27.8465 19.4119 27.6147 20.6156 27.1547 21.7389C26.6947 22.8622 26.0159 23.8828 25.1576 24.7411C22.1914 27.7392 19.2662 30.7738 16.1997 33.667C13.2563 36.451 9.76158 37.0297 6.00713 35.5397C4.57311 34.9383 3.30875 33.9939 2.32513 32.7894C1.34151 31.585 0.668741 30.1575 0.365937 28.6322C0.0631329 27.1069 0.13956 25.5306 0.588503 24.0418C1.03745 22.553 1.84517 21.1972 2.94069 20.0936C3.39633 19.597 3.89297 19.1049 4.40329 18.6492C4.8088 18.2847 4.8088 18.0387 4.40329 17.6468C3.41455 16.7037 2.37114 15.7924 1.66946 14.5986C-0.326232 11.2315 -0.412803 7.80506 1.65124 4.48802C3.66515 1.24843 6.73615 -0.195938 10.5134 0.040993C12.7013 0.187343 14.7591 1.13273 16.2954 2.69736C17.1794 3.56307 18.0405 4.45612 18.929 5.32183C19.1887 5.57243 19.2571 5.75013 18.9655 6.02807C18.0542 6.88923 17.1976 7.76405 16.3364 8.64799C16.0539 8.9396 15.8808 8.96238 15.5664 8.64799C14.8237 7.86885 14.0218 7.14438 13.2882 6.3698C12.8668 5.86937 12.3472 5.46077 11.7615 5.1693C11.1758 4.87784 10.5365 4.70971 9.88324 4.67533C9.22993 4.64095 8.57652 4.74106 7.96348 4.96945C7.35043 5.19784 6.79079 5.54965 6.31922 6.00309C5.84765 6.45653 5.47419 7.00196 5.22196 7.60559C4.96974 8.20922 4.84411 8.8582 4.85287 9.51235C4.86163 10.1665 5.00458 10.8119 5.27288 11.4086C5.54118 12.0052 5.92911 12.5404 6.41265 12.9811C7.59275 14.1475 8.76374 15.3231 9.90739 16.5214C10.1258 16.7337 10.2994 16.9877 10.4179 17.2682C10.5364 17.5488 10.5975 17.8503 10.5975 18.1549C10.5975 18.4594 10.5364 18.7609 10.4179 19.0415C10.2994 19.3221 10.1258 19.576 9.90739 19.7883C8.80019 20.9548 7.6292 22.0665 6.50833 23.2056C5.06396 24.6409 4.56276 26.3404 5.18243 28.2769C5.42561 29.1072 5.90314 29.8497 6.55776 30.4154C7.21238 30.9812 8.01629 31.346 8.87309 31.4663C9.65648 31.6125 10.4642 31.5566 11.22 31.3039C11.9758 31.0511 12.6546 30.6099 13.1925 30.0219C15.6226 27.6192 18.0314 25.2104 20.4189 22.7955C21.0227 22.2445 21.5875 21.6522 22.1094 21.0231C23.6813 18.9454 23.4262 16.4303 21.4578 14.5348C20.9703 14.0792 20.87 13.7967 21.4259 13.3046C22.2506 12.571 23.007 11.7554 23.7679 10.949C24.0732 10.6209 24.2736 10.6391 24.5926 10.949C25.614 11.8602 26.431 12.9771 26.9901 14.2265C27.5492 15.4759 27.8378 16.8294 27.8367 18.1982Z" fill="#CCCDCE"/>
<g clip-path="url(#clip1_1_5854)">
<path d="M29.8143 0C34.3023 0 37.7698 2.24174 39.2187 5.82305C40.7451 9.60484 40.0525 13.0586 37.3414 16.0977C36.8269 16.6654 36.284 17.2068 35.7148 17.7197C35.364 18.0387 35.3503 18.2437 35.7148 18.5946C36.699 19.4757 37.5948 20.4508 38.3894 21.5061C39.2722 22.8262 39.8101 24.3463 39.954 25.9278C40.098 27.5093 39.8434 29.1016 39.2136 30.5594C38.5837 32.0171 37.5986 33.2938 36.3483 34.2729C35.098 35.2519 33.6223 35.9021 32.0561 36.164C28.6433 36.7153 25.7637 35.6673 23.3989 33.1978C22.7018 32.4733 21.9956 31.7625 21.2666 31.0699C20.9613 30.7829 20.8702 30.5824 21.2164 30.2452C22.1277 29.3841 22.9843 28.5001 23.8455 27.6116C24.1097 27.3383 24.3011 27.3291 24.5563 27.6116C25.3901 28.4591 26.2421 29.2838 27.085 30.1176C27.9563 31.024 29.1519 31.5471 30.4089 31.5718C31.6658 31.5966 32.8812 31.1211 33.7875 30.2498C34.6938 29.3785 35.2169 28.1829 35.2417 26.9259C35.2664 25.669 34.7909 24.4537 33.9196 23.5474C32.776 22.3262 31.5685 21.2236 30.4294 20.0481C29.1992 18.8042 29.1992 17.4828 30.4294 16.2389C31.5078 15.1545 32.5952 14.0762 33.6918 13.0039C34.1624 12.5671 34.5395 12.0394 34.8001 11.4526C35.0607 10.8658 35.1995 10.2322 35.208 9.59019C35.2165 8.94818 35.0946 8.31112 34.8496 7.71763C34.6047 7.12413 34.2418 6.58654 33.7829 6.13744C33.3409 5.69059 32.8135 5.3371 32.2322 5.09794C31.651 4.85878 31.0275 4.73883 30.399 4.7452C29.7705 4.75158 29.1496 4.88415 28.5733 5.13505C27.997 5.38595 27.477 5.75006 27.044 6.20578C24.2373 8.99732 21.4351 11.798 18.6375 14.6077C16.4687 16.7811 16.4778 19.597 18.7013 21.7202C19.2253 22.2214 19.2481 22.5085 18.7013 22.9915C17.8584 23.7524 17.0792 24.5816 16.291 25.4018C16.0404 25.657 15.8946 25.698 15.5939 25.4018C11.2972 21.5061 11.1286 15.3003 15.2248 11.2132C17.9951 8.47638 20.7593 5.72281 23.5174 2.95253C25.4311 1.03885 27.7366 0.0273383 29.8143 0Z" fill="#CCCDCE"/>
<path d="M27.8367 18.1982C27.8465 19.4119 27.6147 20.6156 27.1547 21.7389C26.6947 22.8622 26.0159 23.8828 25.1576 24.7411C22.1914 27.7392 19.2662 30.7738 16.1997 33.667C13.2563 36.451 9.76158 37.0297 6.00713 35.5397C4.57311 34.9383 3.30875 33.9939 2.32513 32.7894C1.34151 31.585 0.668741 30.1575 0.365937 28.6322C0.0631329 27.1069 0.13956 25.5306 0.588503 24.0418C1.03745 22.553 1.84517 21.1972 2.94069 20.0936C3.39633 19.597 3.89297 19.1049 4.40329 18.6492C4.8088 18.2847 4.8088 18.0387 4.40329 17.6468C3.41455 16.7037 2.37114 15.7924 1.66946 14.5986C-0.326232 11.2315 -0.412803 7.80506 1.65124 4.48802C3.66515 1.24843 6.73615 -0.195938 10.5134 0.040993C12.7013 0.187343 14.7591 1.13273 16.2954 2.69736C17.1794 3.56307 18.0405 4.45612 18.929 5.32183C19.1887 5.57243 19.2571 5.75013 18.9655 6.02807C18.0542 6.88923 17.1976 7.76405 16.3364 8.64799C16.0539 8.9396 15.8808 8.96238 15.5664 8.64799C14.8237 7.86885 14.0218 7.14438 13.2882 6.3698C12.8668 5.86937 12.3472 5.46077 11.7615 5.1693C11.1758 4.87784 10.5365 4.70971 9.88324 4.67533C9.22993 4.64095 8.57652 4.74106 7.96348 4.96945C7.35043 5.19784 6.79079 5.54965 6.31922 6.00309C5.84765 6.45653 5.47419 7.00196 5.22196 7.60559C4.96974 8.20922 4.84411 8.8582 4.85287 9.51235C4.86163 10.1665 5.00458 10.8119 5.27288 11.4086C5.54118 12.0052 5.92911 12.5404 6.41265 12.9811C7.59275 14.1475 8.76374 15.3231 9.90739 16.5214C10.1258 16.7337 10.2994 16.9877 10.4179 17.2682C10.5364 17.5488 10.5975 17.8503 10.5975 18.1549C10.5975 18.4594 10.5364 18.7609 10.4179 19.0415C10.2994 19.3221 10.1258 19.576 9.90739 19.7883C8.80019 20.9548 7.6292 22.0665 6.50833 23.2056C5.06396 24.6409 4.56276 26.3404 5.18243 28.2769C5.42561 29.1072 5.90314 29.8497 6.55776 30.4154C7.21238 30.9812 8.01629 31.346 8.87309 31.4663C9.65648 31.6125 10.4642 31.5566 11.22 31.3039C11.9758 31.0511 12.6546 30.6099 13.1925 30.0219C15.6226 27.6192 18.0314 25.2104 20.4189 22.7955C21.0227 22.2445 21.5875 21.6522 22.1094 21.0231C23.6813 18.9454 23.4262 16.4303 21.4578 14.5348C20.9703 14.0792 20.87 13.7967 21.4259 13.3046C22.2506 12.571 23.007 11.7554 23.7679 10.949C24.0732 10.6209 24.2736 10.6391 24.5926 10.949C25.614 11.8602 26.431 12.9771 26.9901 14.2265C27.5492 15.4759 27.8378 16.8294 27.8367 18.1982Z" fill="#CCCDCE"/>
</g>
</g>
<defs>
<clipPath id="clip0_1_5854">
<rect width="39.882" height="36.3417" fill="white" transform="translate(0.129883)"/>
</clipPath>
<clipPath id="clip1_1_5854">
<rect width="39.882" height="36.3417" fill="white" transform="translate(0.129883)"/>
</clipPath>
</defs>
</svg>
