<svg width="39" height="38" viewBox="0 0 39 38" fill="none" xmlns="http://www.w3.org/2000/svg">
<path d="M0.0527344 2.68738C0.0527344 1.20396 1.31487 0 2.87091 0H35.3646C36.9211 0 38.1828 1.20396 38.1828 2.68738V34.8281C38.1828 36.3121 36.9211 37.515 35.3646 37.515H2.87091C1.31487 37.515 0.0527344 36.3121 0.0527344 34.8286V2.68688V2.68738Z" fill="#0A66C2"/>
<path d="M12.2064 30.7496V14.1513H6.5375V30.7496H12.2069H12.2064ZM9.37296 11.8854C11.3495 11.8854 12.58 10.6108 12.58 9.01797C12.5428 7.38899 11.3495 6.15002 9.4106 6.15002C7.47026 6.15002 6.20312 7.38899 6.20312 9.01797C6.20312 10.6108 7.43311 11.8854 9.3358 11.8854H9.37246H9.37296ZM15.3441 30.7496H21.0125V21.4814C21.0125 20.9858 21.0497 20.4893 21.1993 20.1354C21.609 19.1438 22.5417 18.1174 24.1081 18.1174C26.1589 18.1174 26.9797 19.6393 26.9797 21.8709V30.7496H32.6481V21.2327C32.6481 16.1346 29.8518 13.7622 26.1222 13.7622C23.0643 13.7622 21.7214 15.4254 20.9754 16.5583H21.013V14.1517H15.3446C15.4184 15.7089 15.3441 30.75 15.3441 30.75V30.7496Z" fill="white"/>
</svg>
