<svg width="33" height="33" viewBox="0 0 33 33" fill="none" xmlns="http://www.w3.org/2000/svg">
<rect x="0.000976562" width="32.4368" height="32.4368" rx="7.08523" fill="url(#paint0_linear_1_5896)"/>
<path d="M13.5202 16.26C13.5202 14.7658 14.7307 13.5543 16.2244 13.5543C17.7181 13.5543 18.9293 14.7658 18.9293 16.26C18.9293 17.7541 17.7181 18.9656 16.2244 18.9656C14.7307 18.9656 13.5202 17.7541 13.5202 16.26ZM12.0579 16.26C12.0579 18.5618 13.9233 20.4276 16.2244 20.4276C18.5256 20.4276 20.3909 18.5618 20.3909 16.26C20.3909 13.9582 18.5256 12.0923 16.2244 12.0923C13.9233 12.0923 12.0579 13.9582 12.0579 16.26ZM19.5821 11.927C19.5821 12.1197 19.6391 12.308 19.746 12.4682C19.853 12.6284 20.005 12.7533 20.1829 12.8271C20.3608 12.9009 20.5565 12.9203 20.7454 12.8828C20.9343 12.8452 21.1078 12.7526 21.2441 12.6164C21.3803 12.4802 21.4731 12.3067 21.5107 12.1178C21.5484 11.9289 21.5292 11.7331 21.4556 11.5551C21.3819 11.3771 21.2572 11.2249 21.0971 11.1178C20.937 11.0107 20.7488 10.9535 20.5562 10.9535H20.5558C20.2977 10.9536 20.0502 11.0562 19.8676 11.2387C19.685 11.4213 19.5824 11.6688 19.5821 11.927ZM12.9463 22.8665C12.1552 22.8305 11.7253 22.6987 11.4395 22.5873C11.0607 22.4398 10.7904 22.2641 10.5062 21.9802C10.222 21.6963 10.0461 21.4262 9.89928 21.0473C9.78789 20.7616 9.65611 20.3314 9.62015 19.54C9.58082 18.6845 9.57296 18.4275 9.57296 16.26C9.57296 14.0926 9.58146 13.8363 9.62015 12.98C9.65618 12.1887 9.78892 11.7593 9.89928 11.4728C10.0468 11.0938 10.2224 10.8235 10.5062 10.5392C10.79 10.2549 11.06 10.079 11.4395 9.93209C11.7251 9.82066 12.1552 9.68885 12.9463 9.65288C13.8016 9.61353 14.0585 9.60568 16.2244 9.60568C18.3903 9.60568 18.6475 9.61418 19.5035 9.65288C20.2946 9.68892 20.7238 9.8217 21.0103 9.93209C21.3891 10.079 21.6594 10.2553 21.9436 10.5392C22.2278 10.8231 22.4031 11.0938 22.5505 11.4728C22.6619 11.7585 22.7937 12.1887 22.8297 12.98C22.869 13.8363 22.8769 14.0926 22.8769 16.26C22.8769 18.4275 22.869 18.6838 22.8297 19.54C22.7936 20.3314 22.6612 20.7615 22.5505 21.0473C22.4031 21.4262 22.2274 21.6966 21.9436 21.9802C21.6598 22.2638 21.3891 22.4398 21.0103 22.5873C20.7247 22.6987 20.2946 22.8306 19.5035 22.8665C18.6482 22.9059 18.3913 22.9137 16.2244 22.9137C14.0576 22.9137 13.8014 22.9059 12.9463 22.8665ZM12.8792 8.19271C12.0154 8.23206 11.4251 8.36906 10.9096 8.5697C10.3758 8.77689 9.92388 9.05487 9.47228 9.50588C9.02068 9.95689 8.74351 10.4097 8.53637 10.9437C8.33579 11.4596 8.19883 12.0497 8.15949 12.9137C8.1195 13.7791 8.11035 14.0558 8.11035 16.26C8.11035 18.4641 8.1195 18.7408 8.15949 19.6062C8.19883 20.4703 8.33579 21.0603 8.53637 21.5763C8.74351 22.1099 9.02075 22.5632 9.47228 23.014C9.92381 23.4649 10.3758 23.7424 10.9096 23.9502C11.4261 24.1509 12.0154 24.2879 12.8792 24.3272C13.7448 24.3666 14.0209 24.3764 16.2244 24.3764C18.4279 24.3764 18.7045 24.3672 19.5697 24.3272C20.4335 24.2879 21.0234 24.1509 21.5392 23.9502C22.0727 23.7424 22.525 23.4651 22.9766 23.014C23.4282 22.563 23.7047 22.1099 23.9125 21.5763C24.113 21.0603 24.2507 20.4702 24.2893 19.6062C24.3287 18.7401 24.3378 18.4641 24.3378 16.26C24.3378 14.0558 24.3287 13.7791 24.2893 12.9137C24.25 12.0496 24.113 11.4593 23.9125 10.9437C23.7047 10.41 23.4274 9.9576 22.9766 9.50588C22.5257 9.05415 22.0727 8.77689 21.5398 8.5697C21.0234 8.36906 20.4335 8.23141 19.5703 8.19271C18.7052 8.15336 18.4286 8.14355 16.2251 8.14355C14.0215 8.14355 13.7448 8.15271 12.8792 8.19271Z" fill="white"/>
<defs>
<linearGradient id="paint0_linear_1_5896" x1="31.8143" y1="32.4368" x2="-0.622458" y2="-8.73108e-07" gradientUnits="userSpaceOnUse">
<stop stop-color="#FBE18A"/>
<stop offset="0.21" stop-color="#FCBB45"/>
<stop offset="0.38" stop-color="#F75274"/>
<stop offset="0.52" stop-color="#D53692"/>
<stop offset="0.74" stop-color="#8F39CE"/>
<stop offset="1" stop-color="#5B4FE9"/>
</linearGradient>
</defs>
</svg>
