<svg width="18" height="18" viewBox="0 0 18 18" fill="none" xmlns="http://www.w3.org/2000/svg">
<path d="M8.97803 1.5C4.83803 1.5 1.47803 4.86 1.47803 9C1.47803 13.14 4.83803 16.5 8.97803 16.5C13.118 16.5 16.478 13.14 16.478 9C16.478 4.86 13.1255 1.5 8.97803 1.5ZM13.0505 12.3225C12.128 13.65 10.613 14.4375 9.00053 14.4375C7.38803 14.4375 5.87303 13.65 4.95053 12.3225C4.77053 12.0675 4.83803 11.715 5.09303 11.5425C5.34803 11.3625 5.70053 11.43 5.87303 11.685C6.58553 12.705 7.75553 13.32 9.00053 13.32C10.2455 13.32 11.4155 12.7125 12.128 11.685C12.308 11.43 12.653 11.37 12.908 11.5425C13.1705 11.715 13.2305 12.0675 13.0505 12.3225Z" fill="#CCCDCE"/>
</svg>
