<svg width="12" height="13" viewBox="0 0 12 13" fill="none" xmlns="http://www.w3.org/2000/svg">
<path d="M7.81958 11.0996H3.21997C3.03139 11.0996 2.875 10.9432 2.875 10.7546C2.875 10.5661 3.03139 10.4097 3.21997 10.4097H7.81958C8.00816 10.4097 8.16455 10.5661 8.16455 10.7546C8.16455 10.9432 8.00816 11.0996 7.81958 11.0996Z" fill="url(#paint0_linear_20_699)"/>
<path d="M9.36011 3.51949L7.52027 4.83498C7.27649 5.00976 6.92692 4.90397 6.82113 4.62339L5.9518 2.30519C5.80462 1.90502 5.23886 1.90502 5.09168 2.30519L4.21775 4.61879C4.11196 4.90397 3.76699 5.00976 3.52321 4.83038L1.68337 3.51489C1.3154 3.25731 0.827838 3.62068 0.979625 4.04844L2.89306 9.40699C2.95746 9.59097 3.13224 9.71056 3.32543 9.71056H7.70885C7.90204 9.71056 8.07682 9.58637 8.14122 9.40699L10.0547 4.04844C10.211 3.62068 9.72348 3.25731 9.36011 3.51949ZM6.66934 7.76493H4.36954C4.18095 7.76493 4.02457 7.60854 4.02457 7.41996C4.02457 7.23137 4.18095 7.07499 4.36954 7.07499H6.66934C6.85793 7.07499 7.01431 7.23137 7.01431 7.41996C7.01431 7.60854 6.85793 7.76493 6.66934 7.76493Z" fill="url(#paint1_linear_20_699)"/>
<defs>
<linearGradient id="paint0_linear_20_699" x1="2.875" y1="10.7546" x2="8.16455" y2="10.7546" gradientUnits="userSpaceOnUse">
<stop stop-color="#3D05DD"/>
<stop offset="1" stop-color="#E198F0"/>
</linearGradient>
<linearGradient id="paint1_linear_20_699" x1="0.951172" y1="5.85781" x2="10.0847" y2="5.85781" gradientUnits="userSpaceOnUse">
<stop stop-color="#3D05DD"/>
<stop offset="1" stop-color="#E198F0"/>
</linearGradient>
</defs>
</svg>
