<svg width="33" height="32" viewBox="0 0 33 32" fill="none" xmlns="http://www.w3.org/2000/svg">
<path d="M23.2916 3.23999H9.95829C5.95829 3.23999 3.29163 5.90666 3.29163 9.90666V17.9067C3.29163 21.9067 5.95829 24.5733 9.95829 24.5733H15.2916L21.225 28.52C22.105 29.1067 23.2916 28.48 23.2916 27.4133V24.5733C27.2916 24.5733 29.9583 21.9067 29.9583 17.9067V9.90666C29.9583 5.90666 27.2916 3.23999 23.2916 3.23999ZM21.2916 15H11.9583C11.4116 15 10.9583 14.5467 10.9583 14C10.9583 13.4533 11.4116 13 11.9583 13H21.2916C21.8383 13 22.2916 13.4533 22.2916 14C22.2916 14.5467 21.8383 15 21.2916 15Z" fill="#AAABAD"/>
</svg>
