<svg width="33" height="32" viewBox="0 0 33 32" fill="none" xmlns="http://www.w3.org/2000/svg">
<path d="M23.2917 3.23999H9.95841C5.95841 3.23999 3.29175 5.90666 3.29175 9.90666V17.9067C3.29175 21.9067 5.95841 24.5733 9.95841 24.5733H15.2917L21.2251 28.52C22.1051 29.1067 23.2917 28.48 23.2917 27.4133V24.5733C27.2917 24.5733 29.9584 21.9067 29.9584 17.9067V9.90666C29.9584 5.90666 27.2917 3.23999 23.2917 3.23999ZM21.2917 15H11.9584C11.4117 15 10.9584 14.5467 10.9584 14C10.9584 13.4533 11.4117 13 11.9584 13H21.2917C21.8384 13 22.2917 13.4533 22.2917 14C22.2917 14.5467 21.8384 15 21.2917 15Z" fill="url(#paint0_linear_20_1222)"/>
<defs>
<linearGradient id="paint0_linear_20_1222" x1="3.29175" y1="15.9926" x2="29.9584" y2="15.9926" gradientUnits="userSpaceOnUse">
<stop stop-color="#3D05DD"/>
<stop offset="1" stop-color="#E198F0"/>
</linearGradient>
</defs>
</svg>
