<svg width="144" height="38" viewBox="0 0 144 38" fill="none" xmlns="http://www.w3.org/2000/svg">
<g clip-path="url(#clip0_1_1922)">
<path d="M0 31.3105H15.7356V26.2024H5.69556V6.71622H0V31.3105ZM23.7024 31.3105V14.3705H18.0073V31.3105H23.7024ZM20.8554 12.058C22.841 12.058 24.0771 10.7571 24.0771 9.13053C24.0403 7.46851 22.841 6.20453 20.8932 6.20453C18.9449 6.20453 17.6709 7.469 17.6709 9.13053C17.6709 10.7571 18.9071 12.058 20.818 12.058H20.8554ZM26.3464 31.3105H32.0415V21.8501C32.0415 21.3438 32.0783 20.8375 32.2291 20.4769C32.6401 19.4653 33.5772 18.4173 35.1508 18.4173C37.212 18.4173 38.0366 19.9711 38.0366 22.2471V31.31H43.7307V21.5972C43.7307 16.3936 40.921 13.9724 37.1737 13.9724C34.1017 13.9724 32.7526 15.6704 32.0031 16.8271H32.0415V14.3705H26.3464C26.4215 15.9602 26.3464 31.3105 26.3464 31.3105ZM51.7652 6.71622H46.0701V31.3105H51.7652V25.8181L53.1884 24.0464L57.6474 31.3105H64.6532L57.1607 20.7947L63.7167 13.6408H56.8611C56.8611 13.6408 52.1777 20.0409 51.7652 20.8006V6.71622Z" fill="#221E20"/>
<path d="M81.8883 23.733C81.9635 23.2981 82.0759 22.4636 82.0759 21.5199C82.0759 17.141 79.8276 12.6952 73.9081 12.6952C67.576 12.6952 64.6533 17.6463 64.6533 22.1369C64.6533 27.6907 68.213 31.1589 74.4321 31.1589C76.9054 31.1589 79.1901 30.7988 81.0642 30.0396L80.3148 26.321C78.778 26.8248 77.2045 27.0772 75.2567 27.0772C72.5968 27.0772 70.2742 25.9972 70.0866 23.6966L81.8883 23.732V23.733ZM70.0493 19.9238C70.1991 18.4783 71.174 16.3454 73.609 16.3454C76.1937 16.3454 76.7939 18.6225 76.7939 19.9238H70.0498H70.0493ZM96.1329 6.20502V14.7188H96.0578C95.2332 13.5272 93.5099 12.7321 91.2257 12.7321C86.8414 12.7321 82.9826 16.2008 83.0195 22.1266C83.0195 27.6194 86.5045 31.1968 90.8499 31.1968C93.2108 31.1968 95.4581 30.1843 96.5828 28.2329H96.6948L96.9202 30.7993H101.978C101.903 29.6066 101.828 27.5471 101.828 25.5234V6.20453H96.1324L96.1329 6.20502ZM96.1329 22.9581C96.1329 23.391 96.0956 23.8255 96.02 24.1856C95.6841 25.7404 94.3349 26.8233 92.6862 26.8233C90.3264 26.8233 88.7897 24.9448 88.7897 21.9819C88.7897 19.2001 90.102 16.9594 92.7241 16.9594C94.4847 16.9594 95.7209 18.1516 96.0583 19.6326C96.1329 19.9588 96.1329 20.3204 96.1329 20.6451V22.9576V22.9581Z" fill="#221E20"/>
<path d="M105.053 2.68738C105.053 1.20396 106.315 0 107.871 0H140.365C141.921 0 143.183 1.20396 143.183 2.68738V34.8281C143.183 36.3121 141.921 37.515 140.365 37.515H107.871C106.315 37.515 105.053 36.3121 105.053 34.8286V2.68688V2.68738Z" fill="#0A66C2"/>
<path d="M117.206 30.7496V14.1513H111.537V30.7496H117.207H117.206ZM114.373 11.8854C116.349 11.8854 117.58 10.6108 117.58 9.01797C117.543 7.38899 116.349 6.15002 114.411 6.15002C112.47 6.15002 111.203 7.38899 111.203 9.01797C111.203 10.6108 112.433 11.8854 114.336 11.8854H114.372H114.373ZM120.344 30.7496H126.013V21.4814C126.013 20.9858 126.05 20.4893 126.199 20.1354C126.609 19.1438 127.542 18.1174 129.108 18.1174C131.159 18.1174 131.98 19.6393 131.98 21.8709V30.7496H137.648V21.2327C137.648 16.1346 134.852 13.7622 131.122 13.7622C128.064 13.7622 126.721 15.4254 125.975 16.5583H126.013V14.1517H120.345C120.418 15.7089 120.344 30.75 120.344 30.75V30.7496Z" fill="white"/>
</g>
<defs>
<clipPath id="clip0_1_1922">
<rect width="143.183" height="37.515" fill="white"/>
</clipPath>
</defs>
</svg>
