<svg width="33" height="32" viewBox="0 0 33 32" fill="none" xmlns="http://www.w3.org/2000/svg">
<path d="M18.1921 26.88C17.8455 27.0267 17.4721 27.16 17.0721 27.2934L14.9655 27.9867C9.67212 29.6934 6.88546 28.2667 5.16545 22.9734L3.45879 17.7067C1.75212 12.4134 3.16545 9.61335 8.45879 7.90668L10.5121 7.22668C10.2588 7.86668 10.0455 8.60002 9.84545 9.42668L8.53879 15.0134C7.07212 21.2934 9.21879 24.76 15.4988 26.2534L17.7388 26.7867C17.8855 26.8267 18.0455 26.8534 18.1921 26.88Z" fill="#AAABAD"/>
<path d="M23.0187 4.28005L20.792 3.76005C16.3387 2.70672 13.6853 3.57338 12.1253 6.80005C11.7253 7.61338 11.4053 8.60005 11.1387 9.73339L9.83199 15.3201C8.52532 20.8934 10.2453 23.6401 15.8053 24.9601L18.0453 25.4934C18.8187 25.6801 19.5387 25.8001 20.2053 25.8534C24.3653 26.2534 26.5787 24.3067 27.6987 19.4934L29.0053 13.9201C30.312 8.34672 28.6053 5.58672 23.0187 4.28005Z" fill="#AAABAD"/>
</svg>
