<svg width="393" height="200" viewBox="0 0 393 200" fill="none"
  xmlns="http://www.w3.org/2000/svg">
  <path fill-rule="evenodd" clip-rule="evenodd" d="M157.231 62.2235C156.502 62.502 154.115 63.4075 151.926 64.2355C107.959 80.8673 52.2229 113.076 16.6106 142.431C-13.8459 167.536 -39.505 194.504 -37.5381 199.341C-37.09 200.443 -35.9928 200.134 -32.8623 198.026C-30.0498 196.132 -30.2957 196.058 -33.5607 197.817C-36.812 199.569 -36.983 199.468 -35.425 196.719C-28.9247 185.249 9.89419 150.337 37.8299 130.837C83.3288 99.0776 130.511 74.934 171.093 62.6443C186.618 57.9426 190.799 57.4291 191.606 60.1249C192.7 63.7807 180.056 78.686 170.754 84.7064C142.595 102.93 107.18 130.465 104.158 136.484C103.152 138.489 104.503 140.356 106.523 139.752C110.497 138.563 137.983 117.602 159.846 99.088C167.46 92.64 168.56 91.9162 191.925 77.9696C227.375 56.8096 246.222 47.6945 270.883 39.7824C281.029 36.5276 282.116 36.4427 281.271 38.9731C279.568 44.0732 260.747 61.4739 227.482 88.7046C221.605 93.5151 220.518 95.9368 223.503 97.5697L224.581 98.159L227.438 97.1471C229.601 96.3815 231.945 95.1992 237.075 92.2878C254.503 82.3957 287.833 64.6915 304.144 56.6625C331.883 43.0075 362.848 30.0031 407.136 13.4091C413.738 10.9355 418.885 8.83356 422.402 7.17466C425.321 5.79842 429.901 3.78056 432.58 2.69083L437.452 0.7092L434.003 1.52335C432.106 1.97112 428.015 2.73408 424.911 3.21885C410.919 5.40423 389.388 13.1311 343.024 32.606C313.14 45.1585 278.162 62.5945 246.941 80.5025C244.887 81.6807 242.999 82.702 242.746 82.7724C242.493 82.8425 244.834 80.7535 247.947 78.1297C283.407 48.2512 290.819 39.3088 284.89 33.5617C282.501 31.2472 279.661 31.391 269.841 34.3251C246.173 41.3956 222.652 52.6601 191.702 71.7464C187.204 74.5207 187.219 74.5233 189.701 71.416C199.016 59.752 196.532 53.4925 183.176 54.977C180.941 55.2257 160.884 60.8271 157.231 62.2235Z" fill="url(#paint0_linear_1_1987)"/>
  <defs>
    <linearGradient id="paint0_linear_1_1987" x1="-59.0018" y1="242.918" x2="501.642" y2="-32.9244" gradientUnits="userSpaceOnUse">
      <stop stop-color="#E198F0" stop-opacity="0"/>
      <stop offset="0.515625" stop-color="#4108DE"/>
      <stop offset="1" stop-color="#E198F0" stop-opacity="0"/>
    </linearGradient>
  </defs>
</svg>
