<svg width="310" height="65" viewBox="0 0 310 65" fill="none" xmlns="http://www.w3.org/2000/svg">
<g clip-path="url(#clip0_461_6066)">
<path d="M52.8973 0.497246C60.7637 0.497246 66.8412 4.42645 69.3808 10.7036C72.0561 17.3321 70.8422 23.3857 66.0905 28.7125C65.1885 29.7075 64.2369 30.6564 63.2394 31.5555C62.6244 32.1146 62.6005 32.4739 63.2394 33.0889C64.9645 34.6332 66.5346 36.3424 67.9273 38.1921C69.4745 40.5058 70.4173 43.1703 70.6697 45.9422C70.922 48.7142 70.4758 51.5051 69.3718 54.0602C68.2678 56.6153 66.5412 58.853 64.3497 60.569C62.1583 62.285 59.5718 63.4246 56.8265 63.8836C50.8448 64.85 45.7975 63.0131 41.6527 58.6846C40.4308 57.4148 39.193 56.169 37.9152 54.9551C37.3801 54.4519 37.2204 54.1005 37.8273 53.5096C39.4246 52.0002 40.926 50.4509 42.4354 48.8936C42.8986 48.4144 43.234 48.3984 43.6812 48.8936C45.1427 50.379 46.6361 51.8245 48.1135 53.286C49.6407 54.8745 51.7363 55.7913 53.9394 55.8348C56.1425 55.8782 58.2727 55.0447 59.8612 53.5176C61.4498 51.9904 62.3666 49.8948 62.4101 47.6917C62.4535 45.4886 61.62 43.3584 60.0928 41.7699C58.0883 39.6296 55.972 37.6969 53.9754 35.6365C51.8191 33.4562 51.8191 31.1403 53.9754 28.96C55.8655 27.0593 57.7715 25.1692 59.6935 23.2898C60.5184 22.5243 61.1793 21.5992 61.6361 20.5708C62.0929 19.5423 62.3361 18.4317 62.3511 17.3064C62.366 16.1812 62.1523 15.0646 61.723 14.0243C61.2936 12.9841 60.6575 12.0418 59.8532 11.2546C59.0784 10.4714 58.1541 9.85185 57.1353 9.43266C56.1164 9.01347 55.0238 8.80323 53.9221 8.8144C52.8204 8.82558 51.7322 9.05794 50.7221 9.4977C49.712 9.93747 48.8005 10.5757 48.0417 11.3744C43.1222 16.2673 38.2107 21.1762 33.3071 26.101C29.5057 29.9104 29.5217 34.8458 33.419 38.5674C34.3374 39.4459 34.3773 39.949 33.419 40.7956C31.9415 42.1292 30.5759 43.5827 29.1943 45.0202C28.755 45.4675 28.4995 45.5394 27.9724 45.0202C20.4414 38.1921 20.1459 27.3149 27.3255 20.1513C32.1811 15.3542 37.0261 10.5279 41.8604 5.6723C45.2146 2.3181 49.2556 0.545163 52.8973 0.497246Z" fill="white"/>
<path d="M49.4314 32.3942C49.4485 34.5217 49.0422 36.6314 48.236 38.6003C47.4297 40.5692 46.2398 42.3579 44.7355 43.8624C39.5365 49.1173 34.4093 54.4361 29.0346 59.5074C23.8755 64.3869 17.7501 65.4012 11.1695 62.7897C8.65604 61.7355 6.43993 60.0802 4.71589 57.9691C2.99185 55.8581 1.81266 53.3559 1.28192 50.6825C0.751177 48.0091 0.885135 45.2463 1.67202 42.6367C2.45891 40.0272 3.87463 37.6509 5.79482 35.7165C6.59343 34.846 7.46393 33.9835 8.35838 33.1849C9.06915 32.546 9.06915 32.1147 8.35838 31.4279C6.62538 29.7748 4.79654 28.1775 3.56667 26.0852C0.0687179 20.1834 -0.08302 14.1777 3.53472 8.3638C7.06462 2.68562 12.4473 0.153999 19.0679 0.569281C22.9027 0.825796 26.5095 2.48283 29.2023 5.22523C30.7517 6.74261 32.261 8.3079 33.8184 9.82528C34.2736 10.2645 34.3934 10.576 33.8822 11.0631C32.285 12.5725 30.7836 14.1059 29.2742 15.6552C28.7791 16.1663 28.4756 16.2062 27.9245 15.6552C26.6228 14.2896 25.2172 13.0198 23.9314 11.6621C23.1929 10.785 22.2821 10.0688 21.2555 9.55793C20.229 9.04706 19.1084 8.75237 17.9634 8.69212C16.8183 8.63187 15.673 8.80732 14.5985 9.20763C13.524 9.60794 12.5431 10.2246 11.7165 11.0193C10.89 11.8141 10.2354 12.7701 9.79332 13.8281C9.35123 14.8861 9.13104 16.0236 9.14639 17.1702C9.16174 18.3168 9.4123 19.448 9.88256 20.4938C10.3528 21.5396 11.0328 22.4777 11.8803 23.2501C13.9487 25.2945 16.0012 27.355 18.0057 29.4553C18.3885 29.8275 18.6927 30.2726 18.9005 30.7643C19.1083 31.2561 19.2153 31.7845 19.2153 32.3184C19.2153 32.8522 19.1083 33.3807 18.9005 33.8724C18.6927 34.3642 18.3885 34.8093 18.0057 35.1814C16.0651 37.2259 14.0126 39.1745 12.048 41.1711C9.51638 43.6867 8.6379 46.6656 9.72402 50.0597C10.1503 51.515 10.9873 52.8165 12.1346 53.8081C13.282 54.7997 14.6911 55.4392 16.1928 55.65C17.5659 55.9062 18.9817 55.8083 20.3063 55.3653C21.631 54.9223 22.821 54.149 23.7637 53.1184C28.023 48.907 32.2451 44.685 36.4298 40.4523C37.488 39.4864 38.478 38.4484 39.3927 37.3457C42.1479 33.704 41.7007 29.2956 38.2507 25.9734C37.3962 25.1747 37.2205 24.6796 38.1948 23.8171C39.6403 22.5313 40.966 21.1018 42.2997 19.6882C42.8348 19.1132 43.1862 19.1452 43.7452 19.6882C45.5354 21.2854 46.9675 23.2431 47.9475 25.433C48.9275 27.6228 49.4332 29.9951 49.4314 32.3942Z" fill="white"/>
<g clip-path="url(#clip1_461_6066)">
<path d="M52.8973 0.497246C60.7637 0.497246 66.8412 4.42645 69.3808 10.7036C72.0561 17.3321 70.8422 23.3857 66.0905 28.7125C65.1885 29.7075 64.2369 30.6564 63.2394 31.5555C62.6244 32.1146 62.6005 32.4739 63.2394 33.0889C64.9645 34.6332 66.5346 36.3424 67.9273 38.1921C69.4745 40.5058 70.4173 43.1703 70.6697 45.9422C70.922 48.7142 70.4758 51.5051 69.3718 54.0602C68.2678 56.6153 66.5412 58.853 64.3497 60.569C62.1583 62.285 59.5718 63.4246 56.8265 63.8836C50.8448 64.85 45.7975 63.0131 41.6527 58.6846C40.4308 57.4148 39.193 56.169 37.9152 54.9551C37.3801 54.4519 37.2204 54.1005 37.8273 53.5096C39.4246 52.0002 40.926 50.4509 42.4354 48.8936C42.8986 48.4144 43.234 48.3984 43.6812 48.8936C45.1427 50.379 46.6361 51.8245 48.1135 53.286C49.6407 54.8745 51.7363 55.7913 53.9394 55.8348C56.1425 55.8782 58.2727 55.0447 59.8612 53.5176C61.4498 51.9904 62.3666 49.8948 62.4101 47.6917C62.4535 45.4886 61.62 43.3584 60.0928 41.7699C58.0883 39.6296 55.972 37.6969 53.9754 35.6365C51.8191 33.4562 51.8191 31.1403 53.9754 28.96C55.8655 27.0593 57.7715 25.1692 59.6935 23.2898C60.5184 22.5243 61.1793 21.5992 61.6361 20.5708C62.0929 19.5423 62.3361 18.4317 62.3511 17.3064C62.366 16.1812 62.1523 15.0646 61.723 14.0243C61.2936 12.9841 60.6575 12.0418 59.8532 11.2546C59.0784 10.4714 58.1541 9.85185 57.1353 9.43266C56.1164 9.01347 55.0238 8.80323 53.9221 8.8144C52.8204 8.82558 51.7322 9.05794 50.7221 9.4977C49.712 9.93747 48.8005 10.5757 48.0417 11.3744C43.1222 16.2673 38.2107 21.1762 33.3071 26.101C29.5057 29.9104 29.5217 34.8458 33.419 38.5674C34.3374 39.4459 34.3773 39.949 33.419 40.7956C31.9415 42.1292 30.5759 43.5827 29.1943 45.0202C28.755 45.4675 28.4995 45.5394 27.9724 45.0202C20.4414 38.1921 20.1459 27.3149 27.3255 20.1513C32.1811 15.3542 37.0261 10.5279 41.8604 5.6723C45.2146 2.3181 49.2556 0.545163 52.8973 0.497246Z" fill="white"/>
<path d="M49.4314 32.3942C49.4485 34.5217 49.0422 36.6314 48.236 38.6003C47.4297 40.5692 46.2398 42.3579 44.7355 43.8624C39.5365 49.1173 34.4093 54.4361 29.0346 59.5074C23.8755 64.3869 17.7501 65.4012 11.1695 62.7897C8.65604 61.7355 6.43993 60.0802 4.71589 57.9691C2.99185 55.8581 1.81266 53.3559 1.28192 50.6825C0.751177 48.0091 0.885135 45.2463 1.67202 42.6367C2.45891 40.0272 3.87463 37.6509 5.79482 35.7165C6.59343 34.846 7.46393 33.9835 8.35838 33.1849C9.06915 32.546 9.06915 32.1147 8.35838 31.4279C6.62538 29.7748 4.79654 28.1775 3.56667 26.0852C0.0687179 20.1834 -0.08302 14.1777 3.53472 8.3638C7.06462 2.68562 12.4473 0.153999 19.0679 0.569281C22.9027 0.825796 26.5095 2.48283 29.2023 5.22523C30.7517 6.74261 32.261 8.3079 33.8184 9.82528C34.2736 10.2645 34.3934 10.576 33.8822 11.0631C32.285 12.5725 30.7836 14.1059 29.2742 15.6552C28.7791 16.1663 28.4756 16.2062 27.9245 15.6552C26.6228 14.2896 25.2172 13.0198 23.9314 11.6621C23.1929 10.785 22.2821 10.0688 21.2555 9.55793C20.229 9.04706 19.1084 8.75237 17.9634 8.69212C16.8183 8.63187 15.673 8.80732 14.5985 9.20763C13.524 9.60794 12.5431 10.2246 11.7165 11.0193C10.89 11.8141 10.2354 12.7701 9.79332 13.8281C9.35123 14.8861 9.13104 16.0236 9.14639 17.1702C9.16174 18.3168 9.4123 19.448 9.88256 20.4938C10.3528 21.5396 11.0328 22.4777 11.8803 23.2501C13.9487 25.2945 16.0012 27.355 18.0057 29.4553C18.3885 29.8275 18.6927 30.2726 18.9005 30.7643C19.1083 31.2561 19.2153 31.7845 19.2153 32.3184C19.2153 32.8522 19.1083 33.3807 18.9005 33.8724C18.6927 34.3642 18.3885 34.8093 18.0057 35.1814C16.0651 37.2259 14.0126 39.1745 12.048 41.1711C9.51638 43.6867 8.6379 46.6656 9.72402 50.0597C10.1503 51.515 10.9873 52.8165 12.1346 53.8081C13.282 54.7997 14.6911 55.4392 16.1928 55.65C17.5659 55.9062 18.9817 55.8083 20.3063 55.3653C21.631 54.9223 22.821 54.149 23.7637 53.1184C28.023 48.907 32.2451 44.685 36.4298 40.4523C37.488 39.4864 38.478 38.4484 39.3927 37.3457C42.1479 33.704 41.7007 29.2956 38.2507 25.9734C37.3962 25.1747 37.2205 24.6796 38.1948 23.8171C39.6403 22.5313 40.966 21.1018 42.2997 19.6882C42.8348 19.1132 43.1862 19.1452 43.7452 19.6882C45.5354 21.2854 46.9675 23.2431 47.9475 25.433C48.9275 27.6228 49.4332 29.9951 49.4314 32.3942Z" fill="white"/>
</g>
</g>
<path d="M93.5765 48.2962C86.9339 48.2962 82.6484 43.7963 82.6484 36.5109C82.6484 29.2683 86.9125 24.6613 93.5337 24.6613C97.9907 24.6613 101.783 26.9541 102.876 30.1468C103.048 30.5968 103.155 31.0468 103.155 31.4325C103.155 32.761 102.148 33.5753 100.862 33.5753C99.7906 33.5753 99.1478 33.1253 98.5264 32.0539C97.3907 29.9754 95.8907 28.9897 93.6837 28.9897C90.2552 28.9897 88.0696 31.8396 88.0696 36.4895C88.0696 41.2036 90.2767 43.9892 93.6623 43.9892C96.0193 43.9892 97.4764 42.8964 98.5049 41.075C99.2335 39.875 99.812 39.4251 100.969 39.4251C102.233 39.4251 103.219 40.2822 103.219 41.6107C103.219 42.0178 103.112 42.4678 102.898 42.9821C101.633 46.0891 97.8621 48.2962 93.5765 48.2962ZM114.769 48.2533C109.84 48.2533 106.712 45.0606 106.712 39.8108V27.4898C106.712 25.7113 107.805 24.6828 109.369 24.6828C110.933 24.6828 112.047 25.7113 112.047 27.5112V38.7394C112.047 41.9964 113.633 43.7535 116.633 43.7535C119.718 43.7535 121.625 41.5678 121.625 38.268V27.4898C121.625 25.7113 122.74 24.6828 124.304 24.6828C125.847 24.6828 126.961 25.7113 126.961 27.5112V45.5748C126.961 47.2891 125.932 48.2747 124.411 48.2747C122.868 48.2747 121.818 47.2891 121.818 45.5748V43.9035H121.711C120.511 46.6676 118.218 48.2533 114.769 48.2533ZM139.818 48.2104C134.096 48.2104 130.389 43.6892 130.389 36.468C130.389 29.2897 134.096 24.747 139.818 24.747C143.075 24.747 145.646 26.4398 146.846 28.9469H146.975V19.3044C146.975 17.5045 148.067 16.4974 149.632 16.4974C151.196 16.4974 152.31 17.5045 152.31 19.3044V45.5963C152.31 47.3105 151.217 48.2747 149.674 48.2747C148.132 48.2747 146.975 47.3319 146.975 45.5963V43.8178H146.867C145.775 46.4319 143.332 48.2104 139.818 48.2104ZM141.425 43.8392C144.789 43.8392 146.996 40.9893 146.996 36.4895C146.996 32.0325 144.789 29.1397 141.425 29.1397C137.996 29.1397 135.854 31.9896 135.854 36.4895C135.854 41.0107 137.975 43.8392 141.425 43.8392ZM165.274 48.2104C159.553 48.2104 155.846 43.6892 155.846 36.468C155.846 29.2897 159.553 24.747 165.274 24.747C168.531 24.747 171.102 26.4398 172.302 28.9469H172.431V19.3044C172.431 17.5045 173.524 16.4974 175.088 16.4974C176.652 16.4974 177.766 17.5045 177.766 19.3044V45.5963C177.766 47.3105 176.673 48.2747 175.131 48.2747C173.588 48.2747 172.431 47.3319 172.431 45.5963V43.8178H172.324C171.231 46.4319 168.788 48.2104 165.274 48.2104ZM166.881 43.8392C170.245 43.8392 172.452 40.9893 172.452 36.4895C172.452 32.0325 170.245 29.1397 166.881 29.1397C163.452 29.1397 161.31 31.9896 161.31 36.4895C161.31 41.0107 163.431 43.8392 166.881 43.8392ZM190.73 48.2104C185.009 48.2104 181.302 43.6892 181.302 36.468C181.302 29.2897 185.009 24.747 190.73 24.747C193.987 24.747 196.558 26.4398 197.758 28.9469H197.887V19.3044C197.887 17.5045 198.98 16.4974 200.544 16.4974C202.108 16.4974 203.222 17.5045 203.222 19.3044V45.5963C203.222 47.3105 202.13 48.2747 200.587 48.2747C199.044 48.2747 197.887 47.3319 197.887 45.5963V43.8178H197.78C196.687 46.4319 194.244 48.2104 190.73 48.2104ZM192.337 43.8392C195.701 43.8392 197.908 40.9893 197.908 36.4895C197.908 32.0325 195.701 29.1397 192.337 29.1397C188.909 29.1397 186.766 31.9896 186.766 36.4895C186.766 41.0107 188.887 43.8392 192.337 43.8392ZM210.529 48.2747C208.965 48.2747 207.851 47.2676 207.851 45.4677V19.3044C207.851 17.5045 208.965 16.4974 210.529 16.4974C212.094 16.4974 213.186 17.5045 213.186 19.3044V45.4677C213.186 47.2676 212.094 48.2747 210.529 48.2747ZM227.822 48.2962C220.879 48.2962 216.786 43.9463 216.786 36.5752C216.786 29.3326 220.965 24.6613 227.522 24.6613C233.736 24.6613 237.978 29.0755 237.978 35.2467C237.978 36.8323 237.078 37.7751 235.493 37.7751H222.1V37.9465C222.1 41.7393 224.307 44.182 227.779 44.182C230.179 44.182 231.743 43.3463 233.457 41.1607C234.014 40.5393 234.507 40.3036 235.257 40.3036C236.457 40.3036 237.4 41.075 237.4 42.3607C237.4 42.7678 237.271 43.2392 237.035 43.7106C235.536 46.6034 232.15 48.2962 227.822 48.2962ZM222.143 34.261H232.75C232.643 30.9611 230.543 28.7969 227.543 28.7969C224.543 28.7969 222.357 31.004 222.143 34.261ZM252.871 48.2747C251.263 48.2747 250.214 47.2462 250.214 45.4677V27.4041C250.214 25.6684 251.263 24.6828 252.763 24.6828C254.263 24.6828 255.335 25.6684 255.335 27.4041V29.0755H255.442C256.428 26.4398 258.827 24.7042 261.913 24.7042C265.127 24.7042 267.42 26.3541 268.256 29.2683H268.384C269.477 26.4613 272.177 24.7042 275.455 24.7042C279.934 24.7042 282.869 27.7255 282.869 32.2682V45.4677C282.869 47.2462 281.798 48.2747 280.212 48.2747C278.605 48.2747 277.534 47.2462 277.534 45.4677V33.5753C277.534 30.7897 276.077 29.204 273.463 29.204C270.891 29.204 269.134 31.0897 269.134 33.811V45.4677C269.134 47.2462 268.127 48.2747 266.541 48.2747C264.934 48.2747 263.949 47.2462 263.949 45.4677V33.2967C263.949 30.7682 262.406 29.204 259.92 29.204C257.349 29.204 255.549 31.1968 255.549 33.9396V45.4677C255.549 47.2462 254.456 48.2747 252.871 48.2747ZM297.247 48.2962C290.305 48.2962 286.212 43.9463 286.212 36.5752C286.212 29.3326 290.391 24.6613 296.947 24.6613C303.162 24.6613 307.404 29.0755 307.404 35.2467C307.404 36.8323 306.504 37.7751 304.919 37.7751H291.526V37.9465C291.526 41.7393 293.733 44.182 297.205 44.182C299.605 44.182 301.169 43.3463 302.883 41.1607C303.44 40.5393 303.933 40.3036 304.683 40.3036C305.883 40.3036 306.826 41.075 306.826 42.3607C306.826 42.7678 306.697 43.2392 306.461 43.7106C304.961 46.6034 301.576 48.2962 297.247 48.2962ZM291.569 34.261H302.176C302.069 30.9611 299.969 28.7969 296.969 28.7969C293.969 28.7969 291.783 31.004 291.569 34.261Z" fill="white"/>
<defs>
<clipPath id="clip0_461_6066">
<rect width="69.9031" height="63.6978" fill="white" transform="translate(0.867249 0.497253)"/>
</clipPath>
<clipPath id="clip1_461_6066">
<rect width="69.9031" height="63.6978" fill="white" transform="translate(0.867249 0.497253)"/>
</clipPath>
</defs>
</svg>
