<svg width="71" height="65" viewBox="0 0 71 65" fill="none" xmlns="http://www.w3.org/2000/svg">
<g clip-path="url(#clip0_1_2052)">
<path d="M52.8974 0.497253C60.7638 0.497253 66.8413 4.42646 69.3809 10.7036C72.0563 17.3321 70.8424 23.3857 66.0906 28.7125C65.1886 29.7075 64.2371 30.6564 63.2395 31.5555C62.6246 32.1146 62.6006 32.474 63.2395 33.0889C64.9646 34.6332 66.5347 36.3424 67.9274 38.1921C69.4746 40.5058 70.4175 43.1703 70.6698 45.9422C70.9222 48.7142 70.476 51.5051 69.372 54.0602C68.268 56.6153 66.5414 58.853 64.3499 60.569C62.1584 62.285 59.5719 63.4246 56.8266 63.8836C50.845 64.85 45.7977 63.0131 41.6529 58.6846C40.431 57.4148 39.1931 56.169 37.9153 54.9551C37.3802 54.452 37.2205 54.1006 37.8275 53.5096C39.4247 52.0002 40.9261 50.4509 42.4355 48.8936C42.8987 48.4144 43.2341 48.3984 43.6813 48.8936C45.1428 50.379 46.6362 51.8245 48.1137 53.286C49.6408 54.8745 51.7364 55.7914 53.9396 55.8348C56.1427 55.8782 58.2728 55.0447 59.8614 53.5176C61.4499 51.9904 62.3668 49.8948 62.4102 47.6917C62.4536 45.4886 61.6201 43.3584 60.093 41.7699C58.0884 39.6296 55.9721 37.6969 53.9755 35.6365C51.8193 33.4563 51.8193 31.1403 53.9755 28.96C55.8656 27.0593 57.7716 25.1693 59.6937 23.2898C60.5185 22.5243 61.1794 21.5993 61.6362 20.5708C62.093 19.5423 62.3363 18.4317 62.3512 17.3065C62.3661 16.1812 62.1524 15.0646 61.7231 14.0243C61.2937 12.9841 60.6576 12.0418 59.8534 11.2547C59.0786 10.4714 58.1543 9.85185 57.1354 9.43267C56.1166 9.01348 55.0239 8.80324 53.9222 8.81441C52.8206 8.82558 51.7324 9.05795 50.7222 9.49771C49.7121 9.93747 48.8006 10.5757 48.0418 11.3744C43.1223 16.2673 38.2108 21.1762 33.3073 26.101C29.5059 29.9104 29.5218 34.8459 33.4191 38.5674C34.3375 39.4459 34.3774 39.949 33.4191 40.7956C31.9416 42.1293 30.576 43.5827 29.1944 45.0203C28.7552 45.4675 28.4996 45.5394 27.9725 45.0203C20.4415 38.1921 20.146 27.3149 27.3256 20.1513C32.1812 15.3542 37.0262 10.5279 41.8605 5.6723C45.2147 2.3181 49.2557 0.545171 52.8974 0.497253Z" fill="white"/>
<path d="M49.4313 32.3942C49.4485 34.5217 49.0421 36.6314 48.2359 38.6003C47.4297 40.5691 46.2398 42.3579 44.7354 43.8624C39.5364 49.1173 34.4093 54.4361 29.0346 59.5074C23.8755 64.3869 17.7501 65.4012 11.1695 62.7897C8.65601 61.7355 6.4399 60.0802 4.71586 57.9691C2.99182 55.8581 1.81263 53.3559 1.28189 50.6825C0.751147 48.0091 0.885104 45.2463 1.67199 42.6367C2.45887 40.0272 3.8746 37.6508 5.79479 35.7165C6.5934 34.846 7.4639 33.9835 8.35835 33.1849C9.06912 32.546 9.06912 32.1147 8.35835 31.4279C6.62535 29.7748 4.79651 28.1775 3.56664 26.0851C0.0686874 20.1834 -0.0830505 14.1777 3.53469 8.3638C7.06459 2.68561 12.4473 0.153992 19.0678 0.569274C22.9027 0.825788 26.5095 2.48282 29.2023 5.22522C30.7516 6.7426 32.261 8.30789 33.8183 9.82527C34.2735 10.2645 34.3933 10.576 33.8822 11.0631C32.285 12.5725 30.7836 14.1059 29.2742 15.6552C28.779 16.1663 28.4756 16.2062 27.9245 15.6552C26.6228 14.2895 25.2172 13.0197 23.9314 11.6621C23.1929 10.785 22.2821 10.0688 21.2555 9.55792C20.2289 9.04705 19.1084 8.75237 17.9633 8.69211C16.8183 8.63186 15.673 8.80732 14.5985 9.20762C13.524 9.60793 12.5431 10.2246 11.7165 11.0193C10.89 11.8141 10.2354 12.7701 9.79329 13.8281C9.3512 14.8861 9.13101 16.0236 9.14636 17.1702C9.16171 18.3168 9.41227 19.448 9.88253 20.4938C10.3528 21.5396 11.0327 22.4777 11.8803 23.2501C13.9487 25.2945 16.0011 27.355 18.0057 29.4553C18.3884 29.8275 18.6927 30.2726 18.9005 30.7643C19.1082 31.2561 19.2153 31.7845 19.2153 32.3184C19.2153 32.8522 19.1082 33.3807 18.9005 33.8724C18.6927 34.3642 18.3884 34.8093 18.0057 35.1814C16.065 37.2259 14.0126 39.1745 12.048 41.1711C9.51635 43.6867 8.63787 46.6656 9.72399 50.0597C10.1502 51.515 10.9872 52.8165 12.1346 53.8081C13.282 54.7997 14.6911 55.4392 16.1928 55.65C17.5659 55.9062 18.9816 55.8082 20.3063 55.3653C21.631 54.9223 22.8209 54.149 23.7637 53.1184C28.023 48.907 32.245 44.685 36.4298 40.4523C37.488 39.4864 38.478 38.4484 39.3927 37.3457C42.1479 33.704 41.7007 29.2956 38.2507 25.9733C37.3961 25.1747 37.2204 24.6796 38.1948 23.8171C39.6403 22.5313 40.966 21.1018 42.2997 19.6882C42.8347 19.1132 43.1861 19.1452 43.7452 19.6882C45.5354 21.2854 46.9675 23.2431 47.9475 25.433C48.9274 27.6228 49.4331 29.9951 49.4313 32.3942Z" fill="white"/>
<g clip-path="url(#clip1_1_2052)">
<path d="M52.8974 0.497253C60.7638 0.497253 66.8413 4.42646 69.3809 10.7036C72.0563 17.3321 70.8424 23.3857 66.0906 28.7125C65.1886 29.7075 64.2371 30.6564 63.2395 31.5555C62.6246 32.1146 62.6006 32.474 63.2395 33.0889C64.9646 34.6332 66.5347 36.3424 67.9274 38.1921C69.4746 40.5058 70.4175 43.1703 70.6698 45.9422C70.9222 48.7142 70.476 51.5051 69.372 54.0602C68.268 56.6153 66.5414 58.853 64.3499 60.569C62.1584 62.285 59.5719 63.4246 56.8266 63.8836C50.845 64.85 45.7977 63.0131 41.6529 58.6846C40.431 57.4148 39.1931 56.169 37.9153 54.9551C37.3802 54.452 37.2205 54.1006 37.8275 53.5096C39.4247 52.0002 40.9261 50.4509 42.4355 48.8936C42.8987 48.4144 43.2341 48.3984 43.6813 48.8936C45.1428 50.379 46.6362 51.8245 48.1137 53.286C49.6408 54.8745 51.7364 55.7914 53.9396 55.8348C56.1427 55.8782 58.2728 55.0447 59.8614 53.5176C61.4499 51.9904 62.3668 49.8948 62.4102 47.6917C62.4536 45.4886 61.6201 43.3584 60.093 41.7699C58.0884 39.6296 55.9721 37.6969 53.9755 35.6365C51.8193 33.4563 51.8193 31.1403 53.9755 28.96C55.8656 27.0593 57.7716 25.1693 59.6937 23.2898C60.5185 22.5243 61.1794 21.5993 61.6362 20.5708C62.093 19.5423 62.3363 18.4317 62.3512 17.3065C62.3661 16.1812 62.1524 15.0646 61.7231 14.0243C61.2937 12.9841 60.6576 12.0418 59.8534 11.2547C59.0786 10.4714 58.1543 9.85185 57.1354 9.43267C56.1166 9.01348 55.0239 8.80324 53.9222 8.81441C52.8206 8.82558 51.7324 9.05795 50.7222 9.49771C49.7121 9.93747 48.8006 10.5757 48.0418 11.3744C43.1223 16.2673 38.2108 21.1762 33.3073 26.101C29.5059 29.9104 29.5218 34.8459 33.4191 38.5674C34.3375 39.4459 34.3774 39.949 33.4191 40.7956C31.9416 42.1293 30.576 43.5827 29.1944 45.0203C28.7552 45.4675 28.4996 45.5394 27.9725 45.0203C20.4415 38.1921 20.146 27.3149 27.3256 20.1513C32.1812 15.3542 37.0262 10.5279 41.8605 5.6723C45.2147 2.3181 49.2557 0.545171 52.8974 0.497253Z" fill="white"/>
<path d="M49.4313 32.3942C49.4485 34.5217 49.0421 36.6314 48.2359 38.6003C47.4297 40.5691 46.2398 42.3579 44.7354 43.8624C39.5364 49.1173 34.4093 54.4361 29.0346 59.5074C23.8755 64.3869 17.7501 65.4012 11.1695 62.7897C8.65601 61.7355 6.4399 60.0802 4.71586 57.9691C2.99182 55.8581 1.81263 53.3559 1.28189 50.6825C0.751147 48.0091 0.885104 45.2463 1.67199 42.6367C2.45887 40.0272 3.8746 37.6508 5.79479 35.7165C6.5934 34.846 7.4639 33.9835 8.35835 33.1849C9.06912 32.546 9.06912 32.1147 8.35835 31.4279C6.62535 29.7748 4.79651 28.1775 3.56664 26.0851C0.0686874 20.1834 -0.0830505 14.1777 3.53469 8.3638C7.06459 2.68561 12.4473 0.153992 19.0678 0.569274C22.9027 0.825788 26.5095 2.48282 29.2023 5.22522C30.7516 6.7426 32.261 8.30789 33.8183 9.82527C34.2735 10.2645 34.3933 10.576 33.8822 11.0631C32.285 12.5725 30.7836 14.1059 29.2742 15.6552C28.779 16.1663 28.4756 16.2062 27.9245 15.6552C26.6228 14.2895 25.2172 13.0197 23.9314 11.6621C23.1929 10.785 22.2821 10.0688 21.2555 9.55792C20.2289 9.04705 19.1084 8.75237 17.9633 8.69211C16.8183 8.63186 15.673 8.80732 14.5985 9.20762C13.524 9.60793 12.5431 10.2246 11.7165 11.0193C10.89 11.8141 10.2354 12.7701 9.79329 13.8281C9.3512 14.8861 9.13101 16.0236 9.14636 17.1702C9.16171 18.3168 9.41227 19.448 9.88253 20.4938C10.3528 21.5396 11.0327 22.4777 11.8803 23.2501C13.9487 25.2945 16.0011 27.355 18.0057 29.4553C18.3884 29.8275 18.6927 30.2726 18.9005 30.7643C19.1082 31.2561 19.2153 31.7845 19.2153 32.3184C19.2153 32.8522 19.1082 33.3807 18.9005 33.8724C18.6927 34.3642 18.3884 34.8093 18.0057 35.1814C16.065 37.2259 14.0126 39.1745 12.048 41.1711C9.51635 43.6867 8.63787 46.6656 9.72399 50.0597C10.1502 51.515 10.9872 52.8165 12.1346 53.8081C13.282 54.7997 14.6911 55.4392 16.1928 55.65C17.5659 55.9062 18.9816 55.8082 20.3063 55.3653C21.631 54.9223 22.8209 54.149 23.7637 53.1184C28.023 48.907 32.245 44.685 36.4298 40.4523C37.488 39.4864 38.478 38.4484 39.3927 37.3457C42.1479 33.704 41.7007 29.2956 38.2507 25.9733C37.3961 25.1747 37.2204 24.6796 38.1948 23.8171C39.6403 22.5313 40.966 21.1018 42.2997 19.6882C42.8347 19.1132 43.1861 19.1452 43.7452 19.6882C45.5354 21.2854 46.9675 23.2431 47.9475 25.433C48.9274 27.6228 49.4331 29.9951 49.4313 32.3942Z" fill="white"/>
</g>
</g>
<defs>
<clipPath id="clip0_1_2052">
<rect width="69.9031" height="63.6978" fill="white" transform="translate(0.867188 0.497253)"/>
</clipPath>
<clipPath id="clip1_1_2052">
<rect width="69.9031" height="63.6978" fill="white" transform="translate(0.867188 0.497253)"/>
</clipPath>
</defs>
</svg>
