<svg width="33" height="32" viewBox="0 0 33 32" fill="none" xmlns="http://www.w3.org/2000/svg">
<path d="M22.2948 4.1333C19.8815 4.1333 17.7215 5.30663 16.3748 7.10663C15.0282 5.30663 12.8682 4.1333 10.4548 4.1333C6.3615 4.1333 3.0415 7.46663 3.0415 11.5866C3.0415 13.1733 3.29484 14.64 3.73484 16C5.8415 22.6666 12.3348 26.6533 15.5482 27.7466C16.0015 27.9066 16.7482 27.9066 17.2015 27.7466C20.4148 26.6533 26.9082 22.6666 29.0148 16C29.4548 14.64 29.7082 13.1733 29.7082 11.5866C29.7082 7.46663 26.3882 4.1333 22.2948 4.1333Z" fill="url(#paint0_linear_20_526)"/>
<defs>
<linearGradient id="paint0_linear_20_526" x1="3.0415" y1="16" x2="29.7082" y2="16" gradientUnits="userSpaceOnUse">
<stop stop-color="#3D05DD"/>
<stop offset="1" stop-color="#E198F0"/>
</linearGradient>
</defs>
</svg>
